<svg xmlns="http://www.w3.org/2000/svg" xmlns:xlink="http://www.w3.org/1999/xlink" width="100" zoomAndPan="magnify" viewBox="0 0 75 74.999997" height="100" preserveAspectRatio="xMidYMid meet" version="1.0"><defs><g/></defs><g fill="#333652" fill-opacity="1"><g transform="translate(11.710572, 40.72618)"><g><path d="M 4.667969 -2.511719 C 4.617188 -2.816406 4.578125 -3.121094 4.527344 -3.425781 C 4.5 -3.601562 4.46875 -3.789062 4.441406 -3.96875 C 4.410156 -4.214844 4.351562 -4.460938 4.242188 -4.6875 C 4.144531 -4.894531 4.046875 -5.097656 3.96875 -5.316406 C 3.957031 -5.363281 3.929688 -5.425781 3.898438 -5.472656 C 3.808594 -5.640625 3.730469 -5.816406 3.640625 -5.984375 C 3.601562 -6.054688 3.5625 -6.132812 3.515625 -6.191406 C 3.21875 -6.535156 2.855469 -6.773438 2.390625 -6.820312 C 2.144531 -6.84375 1.898438 -6.851562 1.664062 -6.820312 C 1.359375 -6.792969 1.0625 -6.78125 0.757812 -6.820312 C 0.667969 -6.84375 0.570312 -6.84375 0.472656 -6.820312 C 0.246094 -6.800781 0.15625 -6.644531 0.246094 -6.429688 C 0.265625 -6.378906 0.296875 -6.328125 0.324219 -6.269531 C 0.453125 -6.054688 0.503906 -5.816406 0.523438 -5.5625 C 0.550781 -5.226562 0.582031 -4.894531 0.570312 -4.546875 C 0.570312 -4.488281 0.582031 -4.421875 0.589844 -4.351562 C 0.609375 -4.085938 0.621094 -3.828125 0.582031 -3.5625 C 0.550781 -3.367188 0.550781 -3.179688 0.582031 -2.992188 C 0.601562 -2.875 0.609375 -2.757812 0.609375 -2.636719 C 0.621094 -2.324219 0.589844 -2.007812 0.542969 -1.691406 C 0.480469 -1.25 0.523438 -1.140625 0.246094 -0.601562 C 0.214844 -0.542969 0.1875 -0.472656 0.175781 -0.414062 C 0.148438 -0.226562 0.234375 -0.078125 0.421875 -0.0195312 C 0.460938 -0.0117188 0.503906 -0.0117188 0.550781 0 C 0.925781 0.0507812 1.308594 0.0507812 1.691406 0.0195312 C 1.960938 0 2.234375 -0.0117188 2.511719 0.0195312 C 2.597656 0.03125 2.699219 0.0390625 2.796875 0.03125 C 3.082031 -0.0117188 3.375 -0.0703125 3.652344 -0.148438 C 3.878906 -0.214844 4.046875 -0.34375 4.164062 -0.542969 C 4.261719 -0.71875 4.371094 -0.886719 4.46875 -1.054688 C 4.527344 -1.171875 4.566406 -1.300781 4.578125 -1.4375 C 4.585938 -1.625 4.625 -1.8125 4.65625 -2 C 4.675781 -2.097656 4.675781 -2.195312 4.6875 -2.265625 C 4.675781 -2.363281 4.675781 -2.429688 4.667969 -2.511719 Z M 1.515625 -4.460938 C 1.546875 -4.648438 1.554688 -4.84375 1.574219 -5.03125 C 1.59375 -5.1875 1.644531 -5.335938 1.691406 -5.472656 C 1.773438 -5.691406 1.917969 -5.835938 2.117188 -5.925781 C 2.351562 -6.042969 2.550781 -5.984375 2.699219 -5.777344 C 2.738281 -5.730469 2.765625 -5.671875 2.796875 -5.609375 C 2.894531 -5.425781 2.984375 -5.238281 3.070312 -5.058594 C 3.148438 -4.914062 3.210938 -4.765625 3.230469 -4.597656 C 3.257812 -4.410156 3.296875 -4.222656 3.347656 -4.035156 C 3.386719 -3.910156 3.394531 -3.78125 3.394531 -3.640625 C 3.394531 -3.445312 3.40625 -3.238281 3.425781 -3.03125 C 3.457031 -2.636719 3.464844 -2.234375 3.335938 -1.851562 C 3.308594 -1.742188 3.289062 -1.632812 3.257812 -1.527344 C 3.21875 -1.398438 3.160156 -1.269531 3.070312 -1.160156 C 2.824219 -0.828125 2.3125 -0.875 2.105469 -1.082031 C 1.980469 -1.210938 1.871094 -1.339844 1.820312 -1.515625 C 1.714844 -1.859375 1.625 -2.207031 1.585938 -2.570312 C 1.566406 -2.824219 1.546875 -3.082031 1.527344 -3.335938 C 1.507812 -3.523438 1.496094 -3.703125 1.488281 -3.886719 C 1.488281 -4.074219 1.496094 -4.273438 1.515625 -4.460938 Z M 1.515625 -4.460938 "/></g></g></g><g fill="#333652" fill-opacity="1"><g transform="translate(16.986887, 40.72618)"><g><path d="M 0.699219 -6.851562 C 0.621094 -6.851562 0.542969 -6.851562 0.460938 -6.820312 C 0.324219 -6.78125 0.257812 -6.683594 0.265625 -6.535156 C 0.265625 -6.507812 0.277344 -6.476562 0.285156 -6.449219 C 0.324219 -6.25 0.363281 -6.042969 0.414062 -5.847656 C 0.480469 -5.5625 0.511719 -5.265625 0.511719 -4.972656 C 0.523438 -4.507812 0.523438 -4.046875 0.523438 -3.582031 C 0.53125 -3.289062 0.53125 -2.992188 0.492188 -2.707031 C 0.460938 -2.460938 0.460938 -2.226562 0.492188 -1.980469 C 0.511719 -1.871094 0.523438 -1.761719 0.511719 -1.652344 C 0.460938 -1.289062 0.441406 -0.914062 0.277344 -0.582031 C 0.246094 -0.503906 0.214844 -0.421875 0.214844 -0.34375 C 0.195312 -0.175781 0.304688 -0.0507812 0.472656 -0.03125 C 0.523438 -0.0195312 0.582031 -0.0195312 0.628906 -0.03125 C 0.875 -0.0507812 1.121094 -0.0585938 1.378906 -0.0507812 C 1.476562 -0.0507812 1.566406 -0.0390625 1.664062 -0.0390625 C 1.714844 -0.0390625 1.761719 -0.0507812 1.8125 -0.0585938 C 1.980469 -0.0976562 2.039062 -0.234375 1.96875 -0.375 C 1.9375 -0.421875 1.910156 -0.460938 1.878906 -0.503906 C 1.722656 -0.699219 1.644531 -0.925781 1.625 -1.171875 C 1.59375 -1.398438 1.574219 -1.613281 1.546875 -1.832031 C 1.507812 -2.234375 1.664062 -2.570312 1.949219 -2.835938 C 2.058594 -2.933594 2.183594 -2.964844 2.324219 -2.945312 C 2.519531 -2.914062 2.667969 -2.804688 2.757812 -2.609375 C 2.804688 -2.5 2.824219 -2.371094 2.855469 -2.253906 C 2.882812 -2.078125 2.921875 -1.910156 2.992188 -1.742188 C 3.042969 -1.625 3.070312 -1.507812 3.082031 -1.378906 C 3.109375 -1.054688 3.199219 -0.75 3.277344 -0.433594 C 3.328125 -0.246094 3.445312 -0.117188 3.632812 -0.078125 C 3.789062 -0.0390625 3.949219 0 4.105469 0.03125 C 4.300781 0.0585938 4.5 0.0195312 4.6875 -0.0507812 C 4.863281 -0.109375 4.921875 -0.257812 4.863281 -0.421875 C 4.832031 -0.503906 4.792969 -0.570312 4.753906 -0.640625 C 4.675781 -0.769531 4.597656 -0.886719 4.539062 -1.023438 C 4.421875 -1.25 4.3125 -1.488281 4.195312 -1.714844 C 4.085938 -1.9375 3.988281 -2.164062 3.910156 -2.410156 C 3.828125 -2.675781 3.691406 -2.902344 3.535156 -3.121094 C 3.503906 -3.160156 3.476562 -3.191406 3.445312 -3.230469 C 3.335938 -3.375 3.347656 -3.503906 3.476562 -3.640625 C 3.574219 -3.75 3.691406 -3.820312 3.800781 -3.898438 C 3.917969 -3.976562 4.027344 -4.066406 4.132812 -4.164062 C 4.273438 -4.300781 4.339844 -4.46875 4.351562 -4.675781 C 4.359375 -4.804688 4.359375 -4.941406 4.339844 -5.070312 C 4.292969 -5.34375 4.242188 -5.621094 4.195312 -5.898438 C 4.164062 -6.054688 4.132812 -6.210938 4.132812 -6.371094 C 4.144531 -6.417969 4.132812 -6.457031 4.132812 -6.507812 C 4.125 -6.605469 4.066406 -6.683594 3.976562 -6.722656 C 3.9375 -6.742188 3.886719 -6.761719 3.847656 -6.761719 C 3.601562 -6.8125 3.355469 -6.84375 3.101562 -6.8125 C 2.875 -6.792969 2.648438 -6.792969 2.421875 -6.8125 C 2.085938 -6.84375 1.761719 -6.851562 1.425781 -6.851562 C 1.191406 -6.851562 0.945312 -6.851562 0.699219 -6.851562 Z M 1.691406 -5.386719 C 1.734375 -5.492188 1.78125 -5.601562 1.851562 -5.691406 C 2.019531 -5.898438 2.246094 -6.003906 2.492188 -6.042969 C 2.796875 -6.09375 3.011719 -5.957031 3.109375 -5.660156 C 3.199219 -5.355469 3.230469 -5.039062 3.042969 -4.753906 C 3.003906 -4.695312 2.964844 -4.648438 2.921875 -4.597656 C 2.757812 -4.429688 2.597656 -4.253906 2.410156 -4.113281 C 2.3125 -4.035156 2.226562 -3.949219 2.136719 -3.859375 C 2.078125 -3.800781 2.019531 -3.75 1.949219 -3.722656 C 1.792969 -3.640625 1.652344 -3.691406 1.574219 -3.839844 C 1.546875 -3.910156 1.535156 -3.96875 1.535156 -4.035156 C 1.527344 -4.132812 1.535156 -4.242188 1.535156 -4.339844 C 1.535156 -4.695312 1.574219 -5.039062 1.691406 -5.386719 Z M 1.691406 -5.386719 "/></g></g></g><g fill="#333652" fill-opacity="1"><g transform="translate(22.351793, 40.72618)"><g><path d="M 1.527344 -0.0117188 C 1.59375 -0.0117188 1.671875 -0.0195312 1.734375 -0.0507812 C 1.871094 -0.117188 1.917969 -0.214844 1.878906 -0.355469 C 1.871094 -0.414062 1.851562 -0.460938 1.832031 -0.503906 C 1.683594 -0.777344 1.632812 -1.0625 1.613281 -1.367188 C 1.59375 -1.800781 1.566406 -2.226562 1.613281 -2.648438 C 1.632812 -2.855469 1.625 -3.0625 1.585938 -3.257812 C 1.566406 -3.40625 1.554688 -3.554688 1.585938 -3.703125 C 1.613281 -3.847656 1.625 -3.996094 1.605469 -4.132812 C 1.566406 -4.65625 1.664062 -5.167969 1.722656 -5.671875 C 1.753906 -5.878906 1.820312 -6.074219 1.871094 -6.269531 C 1.898438 -6.359375 1.917969 -6.457031 1.9375 -6.546875 C 1.960938 -6.683594 1.890625 -6.773438 1.78125 -6.84375 C 1.734375 -6.863281 1.671875 -6.882812 1.613281 -6.882812 C 1.507812 -6.882812 1.40625 -6.890625 1.300781 -6.882812 C 1.074219 -6.84375 0.835938 -6.84375 0.601562 -6.84375 C 0.53125 -6.851562 0.460938 -6.84375 0.402344 -6.820312 C 0.246094 -6.78125 0.175781 -6.675781 0.1875 -6.515625 C 0.1875 -6.429688 0.214844 -6.359375 0.246094 -6.28125 C 0.296875 -6.171875 0.355469 -6.054688 0.394531 -5.9375 C 0.480469 -5.671875 0.5625 -5.40625 0.53125 -5.117188 C 0.472656 -4.605469 0.511719 -4.09375 0.5625 -3.582031 C 0.589844 -3.277344 0.589844 -2.984375 0.570312 -2.675781 C 0.542969 -2.265625 0.492188 -1.859375 0.503906 -1.445312 C 0.503906 -1.398438 0.503906 -1.347656 0.503906 -1.289062 C 0.472656 -1.003906 0.441406 -0.71875 0.316406 -0.460938 C 0.296875 -0.421875 0.285156 -0.394531 0.285156 -0.355469 C 0.246094 -0.195312 0.304688 -0.0976562 0.460938 -0.0585938 C 0.523438 -0.0507812 0.582031 -0.0507812 0.640625 -0.0390625 C 0.789062 -0.0390625 1.378906 -0.0117188 1.527344 -0.0117188 Z M 1.527344 -0.0117188 "/></g></g></g><g fill="#333652" fill-opacity="1"><g transform="translate(24.930958, 40.72618)"><g><path d="M 1.222656 -4.871094 C 1.230469 -4.953125 1.242188 -5.019531 1.28125 -5.089844 C 1.328125 -5.160156 1.40625 -5.160156 1.46875 -5.109375 C 1.515625 -5.058594 1.546875 -4.992188 1.554688 -4.933594 C 1.613281 -4.648438 1.703125 -4.378906 1.800781 -4.105469 C 1.820312 -4.066406 1.832031 -4.027344 1.832031 -3.976562 C 1.871094 -3.808594 1.917969 -3.652344 1.96875 -3.496094 C 2.066406 -3.230469 2.136719 -2.964844 2.15625 -2.675781 C 2.175781 -2.429688 2.246094 -2.183594 2.34375 -1.960938 C 2.429688 -1.773438 2.492188 -1.585938 2.511719 -1.386719 C 2.578125 -0.933594 2.804688 -0.5625 3.070312 -0.207031 C 3.179688 -0.0703125 3.328125 0.0117188 3.503906 0.03125 C 3.75 0.0507812 3.996094 0.0390625 4.234375 0.03125 C 4.253906 0.03125 4.28125 0.0195312 4.300781 0.0117188 C 4.460938 -0.0390625 4.546875 -0.15625 4.519531 -0.316406 C 4.507812 -0.414062 4.46875 -0.503906 4.441406 -0.589844 C 4.359375 -0.816406 4.320312 -1.042969 4.300781 -1.28125 C 4.28125 -1.515625 4.261719 -1.753906 4.242188 -1.988281 C 4.214844 -2.304688 4.214844 -2.617188 4.234375 -2.933594 C 4.261719 -3.25 4.273438 -3.5625 4.292969 -3.878906 C 4.300781 -3.917969 4.292969 -3.949219 4.292969 -3.988281 C 4.234375 -4.371094 4.253906 -4.746094 4.273438 -5.128906 C 4.292969 -5.425781 4.332031 -5.71875 4.449219 -5.984375 C 4.488281 -6.082031 4.527344 -6.183594 4.558594 -6.28125 C 4.636719 -6.574219 4.546875 -6.714844 4.242188 -6.742188 C 4.046875 -6.773438 3.859375 -6.792969 3.671875 -6.8125 C 3.601562 -6.820312 3.523438 -6.832031 3.457031 -6.8125 C 3.257812 -6.773438 3.167969 -6.617188 3.230469 -6.429688 C 3.257812 -6.351562 3.308594 -6.269531 3.355469 -6.203125 C 3.496094 -6.003906 3.5625 -5.789062 3.574219 -5.542969 C 3.582031 -5.21875 3.59375 -4.894531 3.664062 -4.578125 C 3.703125 -4.351562 3.703125 -4.125 3.671875 -3.898438 C 3.664062 -3.78125 3.640625 -3.664062 3.664062 -3.542969 C 3.710938 -3.230469 3.691406 -2.902344 3.691406 -2.578125 C 3.691406 -2.519531 3.691406 -2.460938 3.683594 -2.402344 C 3.683594 -2.363281 3.671875 -2.3125 3.640625 -2.285156 C 3.59375 -2.214844 3.503906 -2.207031 3.457031 -2.273438 C 3.425781 -2.304688 3.40625 -2.34375 3.386719 -2.382812 C 3.355469 -2.453125 3.335938 -2.519531 3.296875 -2.589844 C 3.148438 -2.882812 3.050781 -3.199219 3.003906 -3.523438 C 2.972656 -3.761719 2.914062 -3.988281 2.855469 -4.214844 C 2.738281 -4.605469 2.617188 -5 2.550781 -5.414062 C 2.480469 -5.855469 2.246094 -6.222656 1.910156 -6.515625 C 1.722656 -6.675781 1.507812 -6.78125 1.261719 -6.832031 C 1.035156 -6.871094 0.796875 -6.851562 0.5625 -6.832031 C 0.523438 -6.820312 0.472656 -6.8125 0.433594 -6.792969 C 0.285156 -6.722656 0.234375 -6.625 0.285156 -6.46875 C 0.296875 -6.429688 0.304688 -6.390625 0.324219 -6.351562 C 0.421875 -6.164062 0.453125 -5.957031 0.480469 -5.75 C 0.53125 -5.363281 0.5625 -4.980469 0.628906 -4.597656 C 0.679688 -4.332031 0.699219 -4.074219 0.667969 -3.808594 C 0.640625 -3.542969 0.640625 -3.277344 0.679688 -3.011719 C 0.699219 -2.855469 0.699219 -2.6875 0.660156 -2.53125 C 0.582031 -2.175781 0.542969 -1.820312 0.5625 -1.457031 C 0.582031 -1.140625 0.492188 -0.847656 0.277344 -0.601562 C 0.226562 -0.550781 0.1875 -0.480469 0.15625 -0.414062 C 0.0976562 -0.277344 0.148438 -0.136719 0.277344 -0.0585938 C 0.355469 -0.0117188 0.433594 0 0.511719 0 C 0.796875 0 1.082031 0 1.367188 -0.0117188 C 1.457031 -0.0117188 1.546875 -0.03125 1.632812 -0.0585938 C 1.792969 -0.128906 1.839844 -0.265625 1.742188 -0.414062 C 1.703125 -0.460938 1.652344 -0.511719 1.605469 -0.5625 C 1.488281 -0.679688 1.417969 -0.816406 1.378906 -0.972656 C 1.347656 -1.09375 1.328125 -1.210938 1.308594 -1.328125 C 1.28125 -1.496094 1.261719 -1.671875 1.222656 -1.851562 C 1.152344 -2.175781 1.101562 -2.5 1.160156 -2.824219 C 1.179688 -2.902344 1.179688 -2.972656 1.179688 -3.050781 C 1.179688 -3.257812 1.179688 -3.476562 1.179688 -3.691406 C 1.179688 -4.085938 1.179688 -4.480469 1.222656 -4.871094 Z M 1.222656 -4.871094 "/></g></g></g><g fill="#333652" fill-opacity="1"><g transform="translate(30.167897, 40.72618)"><g><path d="M 1.761719 -0.0585938 C 2.027344 -0.078125 2.117188 -0.234375 2.007812 -0.480469 C 1.980469 -0.542969 1.949219 -0.589844 1.929688 -0.640625 C 1.890625 -0.71875 1.851562 -0.808594 1.832031 -0.886719 C 1.773438 -1.140625 1.703125 -1.386719 1.683594 -1.644531 C 1.664062 -1.9375 1.632812 -2.234375 1.613281 -2.519531 C 1.605469 -2.71875 1.652344 -2.902344 1.761719 -3.070312 C 1.890625 -3.269531 2.085938 -3.316406 2.292969 -3.191406 C 2.34375 -3.160156 2.390625 -3.121094 2.429688 -3.070312 C 2.578125 -2.914062 2.707031 -2.738281 2.785156 -2.519531 C 2.921875 -2.175781 3.050781 -1.839844 3.179688 -1.496094 C 3.230469 -1.367188 3.25 -1.242188 3.289062 -1.113281 C 3.308594 -1.035156 3.316406 -0.953125 3.335938 -0.875 C 3.425781 -0.570312 3.601562 -0.335938 3.839844 -0.136719 C 3.929688 -0.0703125 4.027344 -0.0195312 4.144531 -0.0117188 C 4.441406 0.0195312 4.726562 0.0117188 5.011719 -0.0976562 C 5.257812 -0.195312 5.394531 -0.382812 5.40625 -0.660156 C 5.40625 -0.828125 5.40625 -0.996094 5.40625 -1.160156 C 5.40625 -1.210938 5.394531 -1.25 5.386719 -1.300781 C 5.324219 -1.566406 5.078125 -1.722656 4.804688 -1.671875 C 4.648438 -1.644531 4.585938 -1.527344 4.65625 -1.378906 C 4.6875 -1.328125 4.726562 -1.289062 4.753906 -1.230469 C 4.804688 -1.160156 4.824219 -1.074219 4.804688 -0.984375 C 4.746094 -0.769531 4.539062 -0.699219 4.371094 -0.847656 C 4.3125 -0.894531 4.273438 -0.964844 4.234375 -1.042969 C 4.175781 -1.152344 4.144531 -1.269531 4.125 -1.398438 C 4.09375 -1.632812 4.074219 -1.859375 4.074219 -2.097656 C 4.074219 -2.332031 4.085938 -2.570312 4.074219 -2.804688 C 4.066406 -3.003906 4.046875 -3.199219 3.957031 -3.386719 C 3.867188 -3.574219 3.730469 -3.691406 3.523438 -3.730469 C 3.464844 -3.742188 3.394531 -3.742188 3.328125 -3.75 C 3.25 -3.769531 3.167969 -3.78125 3.089844 -3.800781 C 2.933594 -3.859375 2.894531 -3.996094 2.984375 -4.132812 C 3.023438 -4.195312 3.070312 -4.242188 3.121094 -4.28125 C 3.191406 -4.351562 3.257812 -4.410156 3.335938 -4.46875 C 3.464844 -4.558594 3.574219 -4.675781 3.632812 -4.8125 C 3.75 -5.058594 3.898438 -5.296875 4.027344 -5.53125 C 4.164062 -5.796875 4.332031 -6.035156 4.558594 -6.230469 C 4.617188 -6.28125 4.675781 -6.339844 4.726562 -6.398438 C 4.824219 -6.527344 4.792969 -6.675781 4.648438 -6.753906 C 4.566406 -6.792969 4.480469 -6.800781 4.390625 -6.800781 C 4.105469 -6.800781 3.828125 -6.792969 3.554688 -6.792969 C 3.367188 -6.792969 3.230469 -6.703125 3.140625 -6.546875 C 3.050781 -6.410156 3.011719 -6.261719 2.984375 -6.113281 C 2.964844 -5.984375 2.953125 -5.867188 2.933594 -5.738281 C 2.921875 -5.601562 2.894531 -5.464844 2.835938 -5.335938 C 2.746094 -5.148438 2.65625 -4.960938 2.570312 -4.773438 C 2.472656 -4.597656 2.324219 -4.460938 2.175781 -4.332031 C 1.960938 -4.15625 1.691406 -4.222656 1.585938 -4.488281 C 1.554688 -4.539062 1.546875 -4.597656 1.527344 -4.65625 C 1.507812 -4.734375 1.488281 -4.824219 1.46875 -4.914062 C 1.425781 -5.109375 1.425781 -5.304688 1.476562 -5.503906 C 1.496094 -5.609375 1.527344 -5.710938 1.554688 -5.816406 C 1.585938 -5.984375 1.632812 -6.152344 1.714844 -6.300781 C 1.734375 -6.351562 1.761719 -6.410156 1.773438 -6.46875 C 1.820312 -6.65625 1.753906 -6.773438 1.554688 -6.8125 C 1.507812 -6.820312 1.46875 -6.832031 1.417969 -6.832031 C 1.328125 -6.832031 1.242188 -6.832031 1.152344 -6.820312 C 0.953125 -6.800781 0.757812 -6.792969 0.5625 -6.820312 C 0.503906 -6.832031 0.433594 -6.820312 0.363281 -6.800781 C 0.207031 -6.761719 0.136719 -6.636719 0.1875 -6.488281 C 0.207031 -6.429688 0.234375 -6.378906 0.257812 -6.320312 C 0.355469 -6.125 0.421875 -5.917969 0.453125 -5.691406 C 0.480469 -5.523438 0.480469 -5.355469 0.472656 -5.1875 C 0.433594 -4.667969 0.492188 -4.15625 0.542969 -3.640625 C 0.582031 -3.289062 0.609375 -2.933594 0.5625 -2.570312 C 0.53125 -2.292969 0.542969 -2.007812 0.570312 -1.734375 C 0.582031 -1.59375 0.582031 -1.457031 0.589844 -1.320312 C 0.609375 -1.074219 0.5625 -0.847656 0.433594 -0.640625 C 0.402344 -0.582031 0.363281 -0.511719 0.355469 -0.433594 C 0.304688 -0.265625 0.382812 -0.148438 0.550781 -0.109375 C 0.582031 -0.0976562 0.609375 -0.0898438 0.640625 -0.0898438 C 0.875 -0.0703125 1.101562 -0.0390625 1.339844 -0.0507812 C 1.476562 -0.0507812 1.625 -0.0390625 1.761719 -0.0585938 Z M 1.761719 -0.0585938 "/></g></g></g><g fill="#333652" fill-opacity="1"><g transform="translate(36.024984, 40.72618)"><g/></g></g><g fill="#333652" fill-opacity="1"><g transform="translate(39.224298, 40.72618)"><g><path d="M 3.023438 0.0117188 C 3.210938 0.03125 3.394531 0 3.582031 -0.0507812 C 3.691406 -0.078125 3.789062 -0.128906 3.878906 -0.195312 C 4.085938 -0.394531 4.253906 -0.609375 4.320312 -0.894531 C 4.351562 -1.023438 4.378906 -1.152344 4.421875 -1.28125 C 4.441406 -1.378906 4.460938 -1.476562 4.460938 -1.585938 C 4.460938 -1.742188 4.460938 -1.890625 4.460938 -2.046875 C 4.441406 -2.371094 4.371094 -2.6875 4.175781 -2.953125 C 4.113281 -3.03125 4.066406 -3.121094 4.015625 -3.199219 C 3.957031 -3.308594 3.886719 -3.394531 3.800781 -3.476562 C 3.5625 -3.691406 3.316406 -3.878906 3.023438 -4.007812 C 2.597656 -4.195312 2.207031 -4.441406 1.8125 -4.6875 C 1.703125 -4.765625 1.625 -4.851562 1.554688 -4.960938 C 1.367188 -5.277344 1.546875 -5.796875 1.8125 -5.964844 C 2 -6.082031 2.214844 -6.152344 2.441406 -6.132812 C 2.667969 -6.113281 2.824219 -5.957031 2.835938 -5.730469 C 2.835938 -5.652344 2.824219 -5.570312 2.816406 -5.492188 C 2.804688 -5.433594 2.796875 -5.375 2.796875 -5.316406 C 2.796875 -5.179688 2.855469 -5.089844 2.992188 -5.050781 C 3.160156 -5 3.335938 -4.980469 3.515625 -5.011719 C 3.78125 -5.070312 3.917969 -5.21875 3.9375 -5.492188 C 3.949219 -5.710938 3.9375 -5.925781 3.886719 -6.132812 C 3.878906 -6.222656 3.847656 -6.300781 3.808594 -6.390625 C 3.703125 -6.625 3.515625 -6.761719 3.25 -6.792969 C 3.042969 -6.8125 2.824219 -6.84375 2.617188 -6.863281 C 2.539062 -6.871094 2.472656 -6.871094 2.390625 -6.863281 C 1.9375 -6.84375 1.476562 -6.792969 1.015625 -6.832031 C 0.914062 -6.84375 0.816406 -6.84375 0.726562 -6.832031 C 0.5625 -6.8125 0.460938 -6.695312 0.460938 -6.527344 C 0.453125 -6.46875 0.460938 -6.410156 0.472656 -6.359375 C 0.542969 -5.917969 0.53125 -5.472656 0.441406 -5.039062 C 0.414062 -4.933594 0.394531 -4.824219 0.375 -4.714844 C 0.324219 -4.46875 0.335938 -4.222656 0.382812 -3.976562 C 0.394531 -3.898438 0.414062 -3.828125 0.441406 -3.761719 C 0.542969 -3.554688 0.71875 -3.476562 0.933594 -3.523438 C 1.023438 -3.542969 1.113281 -3.574219 1.199219 -3.613281 C 1.359375 -3.664062 1.507812 -3.683594 1.664062 -3.664062 C 1.9375 -3.613281 2.207031 -3.542969 2.460938 -3.414062 C 2.628906 -3.328125 2.757812 -3.199219 2.835938 -3.03125 C 2.902344 -2.894531 2.964844 -2.746094 3.03125 -2.609375 C 3.21875 -2.234375 3.21875 -1.859375 3.050781 -1.476562 C 3.011719 -1.398438 2.972656 -1.320312 2.933594 -1.242188 C 2.882812 -1.152344 2.816406 -1.074219 2.746094 -1.003906 C 2.511719 -0.796875 2.144531 -0.738281 1.878906 -0.886719 C 1.632812 -1.015625 1.496094 -1.230469 1.46875 -1.507812 C 1.4375 -1.714844 1.46875 -1.910156 1.574219 -2.097656 C 1.613281 -2.15625 1.652344 -2.226562 1.671875 -2.292969 C 1.722656 -2.441406 1.652344 -2.558594 1.507812 -2.597656 C 1.46875 -2.617188 1.417969 -2.628906 1.378906 -2.628906 C 1.171875 -2.648438 0.984375 -2.609375 0.796875 -2.53125 C 0.660156 -2.472656 0.5625 -2.363281 0.503906 -2.214844 C 0.480469 -2.144531 0.460938 -2.078125 0.441406 -2.007812 C 0.324219 -1.554688 0.277344 -1.09375 0.226562 -0.628906 C 0.214844 -0.582031 0.226562 -0.53125 0.226562 -0.480469 C 0.226562 -0.382812 0.265625 -0.296875 0.324219 -0.226562 C 0.480469 -0.0585938 0.679688 0.0195312 0.90625 0.0117188 C 1.28125 -0.0195312 1.664062 -0.0117188 2.097656 0 C 2.371094 0 2.699219 -0.0117188 3.023438 0.0117188 Z M 3.023438 0.0117188 "/></g></g></g><g fill="#333652" fill-opacity="1"><g transform="translate(44.264364, 40.72618)"><g><path d="M 1.859375 -6.871094 C 1.605469 -6.871094 1.113281 -6.871094 0.738281 -6.871094 C 0.667969 -6.871094 0.589844 -6.863281 0.523438 -6.851562 C 0.363281 -6.820312 0.257812 -6.722656 0.167969 -6.605469 C 0.117188 -6.515625 0.0898438 -6.429688 0.0703125 -6.328125 C 0.0390625 -6.171875 0.0195312 -6.003906 -0.0117188 -5.835938 C -0.03125 -5.699219 -0.03125 -5.570312 -0.0117188 -5.433594 C -0.0117188 -5.34375 0.0195312 -5.265625 0.0703125 -5.1875 C 0.148438 -5.058594 0.277344 -5.050781 0.382812 -5.148438 C 0.453125 -5.207031 0.503906 -5.277344 0.542969 -5.355469 C 0.589844 -5.464844 0.640625 -5.570312 0.699219 -5.671875 C 0.789062 -5.835938 0.925781 -5.945312 1.09375 -6.003906 C 1.289062 -6.082031 1.476562 -6.015625 1.585938 -5.835938 C 1.625 -5.757812 1.664062 -5.691406 1.683594 -5.609375 C 1.773438 -5.355469 1.832031 -5.089844 1.832031 -4.8125 C 1.832031 -4.421875 1.871094 -4.035156 1.851562 -3.640625 C 1.839844 -3.601562 1.851562 -3.554688 1.859375 -3.515625 C 1.859375 -3.355469 1.878906 -3.191406 1.878906 -3.03125 C 1.878906 -2.511719 1.890625 -1.988281 1.832031 -1.46875 C 1.8125 -1.28125 1.773438 -1.09375 1.691406 -0.914062 C 1.632812 -0.796875 1.585938 -0.6875 1.527344 -0.582031 C 1.496094 -0.503906 1.46875 -0.421875 1.445312 -0.355469 C 1.417969 -0.1875 1.476562 -0.078125 1.625 -0.0117188 C 1.703125 0.03125 1.792969 0.0390625 1.878906 0.0507812 C 2.085938 0.0507812 2.292969 0.0507812 2.5 0.0195312 C 2.699219 -0.0117188 2.902344 -0.0507812 3.109375 -0.0585938 C 3.160156 -0.0585938 3.210938 -0.0703125 3.257812 -0.078125 C 3.367188 -0.117188 3.425781 -0.207031 3.414062 -0.316406 C 3.40625 -0.375 3.386719 -0.433594 3.375 -0.492188 C 3.347656 -0.589844 3.308594 -0.6875 3.277344 -0.789062 C 3.191406 -1.023438 3.160156 -1.28125 3.082031 -1.527344 C 2.984375 -1.871094 2.964844 -2.226562 2.945312 -2.570312 C 2.921875 -2.855469 2.933594 -3.128906 2.933594 -3.414062 C 2.933594 -3.574219 2.933594 -3.730469 2.953125 -3.898438 C 2.972656 -4.046875 2.972656 -4.203125 2.953125 -4.359375 C 2.921875 -4.585938 2.921875 -4.824219 2.933594 -5.058594 C 2.945312 -5.257812 2.984375 -5.453125 3.03125 -5.652344 C 3.070312 -5.777344 3.148438 -5.898438 3.25 -5.996094 C 3.355469 -6.09375 3.476562 -6.105469 3.601562 -6.074219 C 3.671875 -6.054688 3.722656 -6.015625 3.769531 -5.976562 C 3.917969 -5.828125 4.046875 -5.671875 4.132812 -5.472656 C 4.175781 -5.386719 4.214844 -5.285156 4.261719 -5.199219 C 4.292969 -5.148438 4.320312 -5.097656 4.359375 -5.050781 C 4.449219 -4.960938 4.566406 -4.980469 4.648438 -5.078125 C 4.695312 -5.140625 4.726562 -5.21875 4.746094 -5.296875 C 4.832031 -5.710938 4.765625 -6.105469 4.546875 -6.46875 C 4.421875 -6.683594 4.214844 -6.8125 3.957031 -6.832031 C 3.867188 -6.84375 3.789062 -6.84375 3.710938 -6.84375 C 3.5625 -6.851562 3.414062 -6.84375 3.269531 -6.863281 C 2.945312 -6.902344 2.609375 -6.902344 2.285156 -6.882812 C 2.144531 -6.871094 1.871094 -6.871094 1.859375 -6.871094 Z M 1.859375 -6.871094 "/></g></g></g><g fill="#333652" fill-opacity="1"><g transform="translate(49.471773, 40.72618)"><g><path d="M 0.855469 -5.886719 C 0.855469 -5.835938 0.855469 -5.789062 0.855469 -5.738281 C 0.875 -5.296875 0.816406 -4.851562 0.71875 -4.429688 C 0.699219 -4.351562 0.679688 -4.273438 0.667969 -4.183594 C 0.628906 -3.859375 0.550781 -3.535156 0.433594 -3.230469 C 0.375 -3.070312 0.335938 -2.902344 0.324219 -2.738281 C 0.304688 -2.511719 0.277344 -2.285156 0.234375 -2.058594 C 0.175781 -1.78125 0.15625 -1.507812 0.148438 -1.230469 C 0.117188 -0.726562 0.601562 -0.207031 1.003906 -0.117188 C 1.386719 -0.03125 1.78125 0.03125 2.183594 -0.0195312 C 2.382812 -0.0507812 2.578125 -0.0507812 2.777344 -0.0195312 C 3.101562 0.03125 3.414062 0.0195312 3.742188 -0.0507812 C 3.996094 -0.109375 4.222656 -0.214844 4.390625 -0.421875 C 4.585938 -0.660156 4.675781 -0.945312 4.695312 -1.242188 C 4.714844 -1.425781 4.707031 -1.625 4.667969 -1.8125 C 4.636719 -2.027344 4.597656 -2.246094 4.578125 -2.460938 C 4.546875 -2.675781 4.5 -2.882812 4.429688 -3.089844 C 4.390625 -3.210938 4.339844 -3.335938 4.300781 -3.464844 C 4.242188 -3.640625 4.203125 -3.828125 4.214844 -4.027344 C 4.214844 -4.3125 4.164062 -4.597656 4.085938 -4.871094 C 4.046875 -5.011719 4.007812 -5.160156 3.996094 -5.304688 C 3.957031 -5.679688 3.917969 -6.0625 3.976562 -6.449219 C 3.976562 -6.46875 3.976562 -6.488281 3.976562 -6.507812 C 3.976562 -6.644531 3.910156 -6.734375 3.789062 -6.773438 C 3.730469 -6.792969 3.671875 -6.800781 3.613281 -6.800781 C 3.515625 -6.800781 3.40625 -6.800781 3.308594 -6.800781 C 2.875 -6.792969 2.453125 -6.78125 2.027344 -6.820312 C 1.761719 -6.851562 1.496094 -6.84375 1.230469 -6.832031 C 1.035156 -6.820312 0.835938 -6.722656 0.855469 -6.417969 C 0.867188 -6.242188 0.855469 -6.0625 0.855469 -5.886719 Z M 1.386719 -3.082031 C 1.339844 -3.445312 1.398438 -3.800781 1.457031 -4.15625 C 1.496094 -4.339844 1.535156 -4.519531 1.574219 -4.695312 C 1.605469 -4.84375 1.632812 -4.980469 1.664062 -5.128906 C 1.703125 -5.335938 1.773438 -5.523438 1.898438 -5.699219 C 1.949219 -5.769531 2.007812 -5.835938 2.066406 -5.898438 C 2.285156 -6.082031 2.550781 -6.082031 2.765625 -5.886719 C 2.953125 -5.699219 3.082031 -5.484375 3.148438 -5.226562 C 3.160156 -5.207031 3.167969 -5.1875 3.167969 -5.167969 C 3.230469 -4.785156 3.296875 -4.410156 3.355469 -4.035156 C 3.367188 -3.957031 3.375 -3.878906 3.375 -3.789062 C 3.375 -3.582031 3.394531 -3.386719 3.40625 -3.179688 C 3.425781 -2.699219 3.394531 -2.226562 3.296875 -1.753906 C 3.210938 -1.328125 2.921875 -1.09375 2.53125 -0.984375 C 2.183594 -0.894531 1.9375 -1.015625 1.761719 -1.308594 C 1.527344 -1.691406 1.339844 -2.105469 1.386719 -2.578125 C 1.386719 -2.636719 1.386719 -2.699219 1.386719 -2.757812 C 1.386719 -2.863281 1.398438 -2.972656 1.386719 -3.082031 Z M 1.386719 -3.082031 "/></g></g></g><g fill="#333652" fill-opacity="1"><g transform="translate(54.767776, 40.72618)"><g><path d="M 0.699219 -6.851562 C 0.621094 -6.851562 0.542969 -6.851562 0.460938 -6.820312 C 0.324219 -6.78125 0.257812 -6.683594 0.265625 -6.535156 C 0.265625 -6.507812 0.277344 -6.476562 0.285156 -6.449219 C 0.324219 -6.25 0.363281 -6.042969 0.414062 -5.847656 C 0.480469 -5.5625 0.511719 -5.265625 0.511719 -4.972656 C 0.523438 -4.507812 0.523438 -4.046875 0.523438 -3.582031 C 0.53125 -3.289062 0.53125 -2.992188 0.492188 -2.707031 C 0.460938 -2.460938 0.460938 -2.226562 0.492188 -1.980469 C 0.511719 -1.871094 0.523438 -1.761719 0.511719 -1.652344 C 0.460938 -1.289062 0.441406 -0.914062 0.277344 -0.582031 C 0.246094 -0.503906 0.214844 -0.421875 0.214844 -0.34375 C 0.195312 -0.175781 0.304688 -0.0507812 0.472656 -0.03125 C 0.523438 -0.0195312 0.582031 -0.0195312 0.628906 -0.03125 C 0.875 -0.0507812 1.121094 -0.0585938 1.378906 -0.0507812 C 1.476562 -0.0507812 1.566406 -0.0390625 1.664062 -0.0390625 C 1.714844 -0.0390625 1.761719 -0.0507812 1.8125 -0.0585938 C 1.980469 -0.0976562 2.039062 -0.234375 1.96875 -0.375 C 1.9375 -0.421875 1.910156 -0.460938 1.878906 -0.503906 C 1.722656 -0.699219 1.644531 -0.925781 1.625 -1.171875 C 1.59375 -1.398438 1.574219 -1.613281 1.546875 -1.832031 C 1.507812 -2.234375 1.664062 -2.570312 1.949219 -2.835938 C 2.058594 -2.933594 2.183594 -2.964844 2.324219 -2.945312 C 2.519531 -2.914062 2.667969 -2.804688 2.757812 -2.609375 C 2.804688 -2.5 2.824219 -2.371094 2.855469 -2.253906 C 2.882812 -2.078125 2.921875 -1.910156 2.992188 -1.742188 C 3.042969 -1.625 3.070312 -1.507812 3.082031 -1.378906 C 3.109375 -1.054688 3.199219 -0.75 3.277344 -0.433594 C 3.328125 -0.246094 3.445312 -0.117188 3.632812 -0.078125 C 3.789062 -0.0390625 3.949219 0 4.105469 0.03125 C 4.300781 0.0585938 4.5 0.0195312 4.6875 -0.0507812 C 4.863281 -0.109375 4.921875 -0.257812 4.863281 -0.421875 C 4.832031 -0.503906 4.792969 -0.570312 4.753906 -0.640625 C 4.675781 -0.769531 4.597656 -0.886719 4.539062 -1.023438 C 4.421875 -1.25 4.3125 -1.488281 4.195312 -1.714844 C 4.085938 -1.9375 3.988281 -2.164062 3.910156 -2.410156 C 3.828125 -2.675781 3.691406 -2.902344 3.535156 -3.121094 C 3.503906 -3.160156 3.476562 -3.191406 3.445312 -3.230469 C 3.335938 -3.375 3.347656 -3.503906 3.476562 -3.640625 C 3.574219 -3.75 3.691406 -3.820312 3.800781 -3.898438 C 3.917969 -3.976562 4.027344 -4.066406 4.132812 -4.164062 C 4.273438 -4.300781 4.339844 -4.46875 4.351562 -4.675781 C 4.359375 -4.804688 4.359375 -4.941406 4.339844 -5.070312 C 4.292969 -5.34375 4.242188 -5.621094 4.195312 -5.898438 C 4.164062 -6.054688 4.132812 -6.210938 4.132812 -6.371094 C 4.144531 -6.417969 4.132812 -6.457031 4.132812 -6.507812 C 4.125 -6.605469 4.066406 -6.683594 3.976562 -6.722656 C 3.9375 -6.742188 3.886719 -6.761719 3.847656 -6.761719 C 3.601562 -6.8125 3.355469 -6.84375 3.101562 -6.8125 C 2.875 -6.792969 2.648438 -6.792969 2.421875 -6.8125 C 2.085938 -6.84375 1.761719 -6.851562 1.425781 -6.851562 C 1.191406 -6.851562 0.945312 -6.851562 0.699219 -6.851562 Z M 1.691406 -5.386719 C 1.734375 -5.492188 1.78125 -5.601562 1.851562 -5.691406 C 2.019531 -5.898438 2.246094 -6.003906 2.492188 -6.042969 C 2.796875 -6.09375 3.011719 -5.957031 3.109375 -5.660156 C 3.199219 -5.355469 3.230469 -5.039062 3.042969 -4.753906 C 3.003906 -4.695312 2.964844 -4.648438 2.921875 -4.597656 C 2.757812 -4.429688 2.597656 -4.253906 2.410156 -4.113281 C 2.3125 -4.035156 2.226562 -3.949219 2.136719 -3.859375 C 2.078125 -3.800781 2.019531 -3.75 1.949219 -3.722656 C 1.792969 -3.640625 1.652344 -3.691406 1.574219 -3.839844 C 1.546875 -3.910156 1.535156 -3.96875 1.535156 -4.035156 C 1.527344 -4.132812 1.535156 -4.242188 1.535156 -4.339844 C 1.535156 -4.695312 1.574219 -5.039062 1.691406 -5.386719 Z M 1.691406 -5.386719 "/></g></g></g><g fill="#333652" fill-opacity="1"><g transform="translate(60.132683, 40.72618)"><g><path d="M 0.609375 -6.84375 C 0.542969 -6.84375 0.472656 -6.84375 0.414062 -6.832031 C 0.207031 -6.800781 0.117188 -6.65625 0.195312 -6.46875 C 0.234375 -6.390625 0.277344 -6.320312 0.316406 -6.25 C 0.421875 -6.082031 0.492188 -5.898438 0.480469 -5.691406 C 0.472656 -5.304688 0.503906 -4.921875 0.511719 -4.546875 C 0.53125 -4.027344 0.511719 -3.496094 0.601562 -2.984375 C 0.601562 -2.964844 0.601562 -2.933594 0.601562 -2.914062 C 0.621094 -2.5 0.621094 -2.097656 0.609375 -1.683594 C 0.589844 -1.300781 0.523438 -0.925781 0.324219 -0.582031 C 0.296875 -0.542969 0.277344 -0.492188 0.257812 -0.441406 C 0.246094 -0.414062 0.226562 -0.375 0.226562 -0.335938 C 0.207031 -0.195312 0.277344 -0.0898438 0.414062 -0.0585938 C 0.472656 -0.0390625 0.542969 -0.0390625 0.609375 -0.0390625 C 0.828125 -0.0390625 1.054688 -0.0390625 1.269531 -0.0507812 C 1.496094 -0.0507812 1.722656 -0.0390625 1.949219 0 C 2.027344 0.0117188 2.105469 0.03125 2.183594 0.03125 C 2.492188 0 2.796875 0.0117188 3.089844 0.03125 C 3.277344 0.03125 3.476562 0.0117188 3.664062 0 C 3.769531 -0.0117188 3.867188 -0.0195312 3.957031 -0.0703125 C 4.15625 -0.167969 4.273438 -0.316406 4.261719 -0.542969 C 4.261719 -0.640625 4.242188 -0.75 4.234375 -0.847656 C 4.214844 -1.003906 4.183594 -1.152344 4.203125 -1.308594 C 4.234375 -1.535156 4.214844 -1.761719 4.183594 -1.988281 C 4.144531 -2.265625 4.046875 -2.363281 3.78125 -2.402344 C 3.75 -2.410156 3.730469 -2.410156 3.710938 -2.410156 C 3.484375 -2.429688 3.269531 -2.390625 3.050781 -2.371094 C 3.03125 -2.371094 3.011719 -2.363281 2.992188 -2.351562 C 2.875 -2.304688 2.824219 -2.195312 2.894531 -2.078125 C 2.921875 -2.027344 2.964844 -1.988281 3.003906 -1.9375 C 3.0625 -1.871094 3.121094 -1.792969 3.160156 -1.703125 C 3.230469 -1.527344 3.238281 -1.347656 3.148438 -1.171875 C 3.023438 -0.945312 2.609375 -0.777344 2.351562 -0.894531 C 1.960938 -1.082031 1.664062 -1.347656 1.632812 -1.8125 C 1.605469 -2.125 1.605469 -2.429688 1.652344 -2.738281 C 1.664062 -2.875 1.703125 -3.003906 1.742188 -3.128906 C 1.792969 -3.308594 1.898438 -3.4375 2.058594 -3.535156 C 2.226562 -3.640625 2.410156 -3.710938 2.617188 -3.710938 C 2.785156 -3.710938 2.953125 -3.691406 3.109375 -3.621094 C 3.179688 -3.59375 3.25 -3.5625 3.316406 -3.554688 C 3.484375 -3.515625 3.59375 -3.582031 3.601562 -3.761719 C 3.613281 -3.839844 3.613281 -3.917969 3.59375 -3.996094 C 3.523438 -4.273438 3.386719 -4.519531 3.199219 -4.734375 C 3.121094 -4.824219 3.023438 -4.851562 2.902344 -4.851562 C 2.804688 -4.863281 2.71875 -4.832031 2.628906 -4.792969 C 2.441406 -4.714844 2.265625 -4.605469 2.105469 -4.46875 C 2.039062 -4.421875 1.980469 -4.371094 1.898438 -4.339844 C 1.734375 -4.28125 1.59375 -4.332031 1.515625 -4.488281 C 1.476562 -4.566406 1.445312 -4.648438 1.445312 -4.746094 C 1.4375 -4.851562 1.4375 -4.960938 1.4375 -5.070312 C 1.425781 -5.304688 1.527344 -5.492188 1.671875 -5.671875 C 1.878906 -5.917969 2.144531 -6.054688 2.453125 -6.132812 C 2.746094 -6.210938 3.003906 -6.152344 3.230469 -5.957031 C 3.355469 -5.855469 3.476562 -5.738281 3.59375 -5.632812 C 3.640625 -5.589844 3.691406 -5.542969 3.75 -5.511719 C 3.828125 -5.464844 3.929688 -5.503906 3.957031 -5.589844 C 3.996094 -5.679688 3.988281 -5.769531 3.96875 -5.855469 C 3.929688 -6.015625 3.886719 -6.171875 3.859375 -6.328125 C 3.808594 -6.605469 3.652344 -6.773438 3.386719 -6.84375 C 3.238281 -6.882812 3.089844 -6.890625 2.945312 -6.890625 C 2.578125 -6.882812 2.214844 -6.882812 1.839844 -6.871094 C 1.753906 -6.871094 1.652344 -6.871094 1.554688 -6.863281 C 1.367188 -6.851562 0.738281 -6.84375 0.609375 -6.84375 Z M 0.609375 -6.84375 "/></g></g></g><g fill="#ffffff" fill-opacity="1"><g transform="translate(11.071437, 40.130177)"><g><path d="M 4.667969 -2.511719 C 4.617188 -2.816406 4.578125 -3.121094 4.527344 -3.425781 C 4.5 -3.601562 4.46875 -3.789062 4.441406 -3.96875 C 4.410156 -4.214844 4.351562 -4.460938 4.242188 -4.6875 C 4.144531 -4.894531 4.046875 -5.097656 3.96875 -5.316406 C 3.957031 -5.363281 3.929688 -5.425781 3.898438 -5.472656 C 3.808594 -5.640625 3.730469 -5.816406 3.640625 -5.984375 C 3.601562 -6.054688 3.5625 -6.132812 3.515625 -6.191406 C 3.21875 -6.535156 2.855469 -6.773438 2.390625 -6.820312 C 2.144531 -6.84375 1.898438 -6.851562 1.664062 -6.820312 C 1.359375 -6.792969 1.0625 -6.78125 0.757812 -6.820312 C 0.667969 -6.84375 0.570312 -6.84375 0.472656 -6.820312 C 0.246094 -6.800781 0.15625 -6.644531 0.246094 -6.429688 C 0.265625 -6.378906 0.296875 -6.328125 0.324219 -6.269531 C 0.453125 -6.054688 0.503906 -5.816406 0.523438 -5.5625 C 0.550781 -5.226562 0.582031 -4.894531 0.570312 -4.546875 C 0.570312 -4.488281 0.582031 -4.421875 0.589844 -4.351562 C 0.609375 -4.085938 0.621094 -3.828125 0.582031 -3.5625 C 0.550781 -3.367188 0.550781 -3.179688 0.582031 -2.992188 C 0.601562 -2.875 0.609375 -2.757812 0.609375 -2.636719 C 0.621094 -2.324219 0.589844 -2.007812 0.542969 -1.691406 C 0.480469 -1.25 0.523438 -1.140625 0.246094 -0.601562 C 0.214844 -0.542969 0.1875 -0.472656 0.175781 -0.414062 C 0.148438 -0.226562 0.234375 -0.078125 0.421875 -0.0195312 C 0.460938 -0.0117188 0.503906 -0.0117188 0.550781 0 C 0.925781 0.0507812 1.308594 0.0507812 1.691406 0.0195312 C 1.960938 0 2.234375 -0.0117188 2.511719 0.0195312 C 2.597656 0.03125 2.699219 0.0390625 2.796875 0.03125 C 3.082031 -0.0117188 3.375 -0.0703125 3.652344 -0.148438 C 3.878906 -0.214844 4.046875 -0.34375 4.164062 -0.542969 C 4.261719 -0.71875 4.371094 -0.886719 4.46875 -1.054688 C 4.527344 -1.171875 4.566406 -1.300781 4.578125 -1.4375 C 4.585938 -1.625 4.625 -1.8125 4.65625 -2 C 4.675781 -2.097656 4.675781 -2.195312 4.6875 -2.265625 C 4.675781 -2.363281 4.675781 -2.429688 4.667969 -2.511719 Z M 1.515625 -4.460938 C 1.546875 -4.648438 1.554688 -4.84375 1.574219 -5.03125 C 1.59375 -5.1875 1.644531 -5.335938 1.691406 -5.472656 C 1.773438 -5.691406 1.917969 -5.835938 2.117188 -5.925781 C 2.351562 -6.042969 2.550781 -5.984375 2.699219 -5.777344 C 2.738281 -5.730469 2.765625 -5.671875 2.796875 -5.609375 C 2.894531 -5.425781 2.984375 -5.238281 3.070312 -5.058594 C 3.148438 -4.914062 3.210938 -4.765625 3.230469 -4.597656 C 3.257812 -4.410156 3.296875 -4.222656 3.347656 -4.035156 C 3.386719 -3.910156 3.394531 -3.78125 3.394531 -3.640625 C 3.394531 -3.445312 3.40625 -3.238281 3.425781 -3.03125 C 3.457031 -2.636719 3.464844 -2.234375 3.335938 -1.851562 C 3.308594 -1.742188 3.289062 -1.632812 3.257812 -1.527344 C 3.21875 -1.398438 3.160156 -1.269531 3.070312 -1.160156 C 2.824219 -0.828125 2.3125 -0.875 2.105469 -1.082031 C 1.980469 -1.210938 1.871094 -1.339844 1.820312 -1.515625 C 1.714844 -1.859375 1.625 -2.207031 1.585938 -2.570312 C 1.566406 -2.824219 1.546875 -3.082031 1.527344 -3.335938 C 1.507812 -3.523438 1.496094 -3.703125 1.488281 -3.886719 C 1.488281 -4.074219 1.496094 -4.273438 1.515625 -4.460938 Z M 1.515625 -4.460938 "/></g></g></g><g fill="#ffffff" fill-opacity="1"><g transform="translate(16.347752, 40.130177)"><g><path d="M 0.699219 -6.851562 C 0.621094 -6.851562 0.542969 -6.851562 0.460938 -6.820312 C 0.324219 -6.78125 0.257812 -6.683594 0.265625 -6.535156 C 0.265625 -6.507812 0.277344 -6.476562 0.285156 -6.449219 C 0.324219 -6.25 0.363281 -6.042969 0.414062 -5.847656 C 0.480469 -5.5625 0.511719 -5.265625 0.511719 -4.972656 C 0.523438 -4.507812 0.523438 -4.046875 0.523438 -3.582031 C 0.53125 -3.289062 0.53125 -2.992188 0.492188 -2.707031 C 0.460938 -2.460938 0.460938 -2.226562 0.492188 -1.980469 C 0.511719 -1.871094 0.523438 -1.761719 0.511719 -1.652344 C 0.460938 -1.289062 0.441406 -0.914062 0.277344 -0.582031 C 0.246094 -0.503906 0.214844 -0.421875 0.214844 -0.34375 C 0.195312 -0.175781 0.304688 -0.0507812 0.472656 -0.03125 C 0.523438 -0.0195312 0.582031 -0.0195312 0.628906 -0.03125 C 0.875 -0.0507812 1.121094 -0.0585938 1.378906 -0.0507812 C 1.476562 -0.0507812 1.566406 -0.0390625 1.664062 -0.0390625 C 1.714844 -0.0390625 1.761719 -0.0507812 1.8125 -0.0585938 C 1.980469 -0.0976562 2.039062 -0.234375 1.96875 -0.375 C 1.9375 -0.421875 1.910156 -0.460938 1.878906 -0.503906 C 1.722656 -0.699219 1.644531 -0.925781 1.625 -1.171875 C 1.59375 -1.398438 1.574219 -1.613281 1.546875 -1.832031 C 1.507812 -2.234375 1.664062 -2.570312 1.949219 -2.835938 C 2.058594 -2.933594 2.183594 -2.964844 2.324219 -2.945312 C 2.519531 -2.914062 2.667969 -2.804688 2.757812 -2.609375 C 2.804688 -2.5 2.824219 -2.371094 2.855469 -2.253906 C 2.882812 -2.078125 2.921875 -1.910156 2.992188 -1.742188 C 3.042969 -1.625 3.070312 -1.507812 3.082031 -1.378906 C 3.109375 -1.054688 3.199219 -0.75 3.277344 -0.433594 C 3.328125 -0.246094 3.445312 -0.117188 3.632812 -0.078125 C 3.789062 -0.0390625 3.949219 0 4.105469 0.03125 C 4.300781 0.0585938 4.5 0.0195312 4.6875 -0.0507812 C 4.863281 -0.109375 4.921875 -0.257812 4.863281 -0.421875 C 4.832031 -0.503906 4.792969 -0.570312 4.753906 -0.640625 C 4.675781 -0.769531 4.597656 -0.886719 4.539062 -1.023438 C 4.421875 -1.25 4.3125 -1.488281 4.195312 -1.714844 C 4.085938 -1.9375 3.988281 -2.164062 3.910156 -2.410156 C 3.828125 -2.675781 3.691406 -2.902344 3.535156 -3.121094 C 3.503906 -3.160156 3.476562 -3.191406 3.445312 -3.230469 C 3.335938 -3.375 3.347656 -3.503906 3.476562 -3.640625 C 3.574219 -3.75 3.691406 -3.820312 3.800781 -3.898438 C 3.917969 -3.976562 4.027344 -4.066406 4.132812 -4.164062 C 4.273438 -4.300781 4.339844 -4.46875 4.351562 -4.675781 C 4.359375 -4.804688 4.359375 -4.941406 4.339844 -5.070312 C 4.292969 -5.34375 4.242188 -5.621094 4.195312 -5.898438 C 4.164062 -6.054688 4.132812 -6.210938 4.132812 -6.371094 C 4.144531 -6.417969 4.132812 -6.457031 4.132812 -6.507812 C 4.125 -6.605469 4.066406 -6.683594 3.976562 -6.722656 C 3.9375 -6.742188 3.886719 -6.761719 3.847656 -6.761719 C 3.601562 -6.8125 3.355469 -6.84375 3.101562 -6.8125 C 2.875 -6.792969 2.648438 -6.792969 2.421875 -6.8125 C 2.085938 -6.84375 1.761719 -6.851562 1.425781 -6.851562 C 1.191406 -6.851562 0.945312 -6.851562 0.699219 -6.851562 Z M 1.691406 -5.386719 C 1.734375 -5.492188 1.78125 -5.601562 1.851562 -5.691406 C 2.019531 -5.898438 2.246094 -6.003906 2.492188 -6.042969 C 2.796875 -6.09375 3.011719 -5.957031 3.109375 -5.660156 C 3.199219 -5.355469 3.230469 -5.039062 3.042969 -4.753906 C 3.003906 -4.695312 2.964844 -4.648438 2.921875 -4.597656 C 2.757812 -4.429688 2.597656 -4.253906 2.410156 -4.113281 C 2.3125 -4.035156 2.226562 -3.949219 2.136719 -3.859375 C 2.078125 -3.800781 2.019531 -3.75 1.949219 -3.722656 C 1.792969 -3.640625 1.652344 -3.691406 1.574219 -3.839844 C 1.546875 -3.910156 1.535156 -3.96875 1.535156 -4.035156 C 1.527344 -4.132812 1.535156 -4.242188 1.535156 -4.339844 C 1.535156 -4.695312 1.574219 -5.039062 1.691406 -5.386719 Z M 1.691406 -5.386719 "/></g></g></g><g fill="#ffffff" fill-opacity="1"><g transform="translate(21.712659, 40.130177)"><g><path d="M 1.527344 -0.0117188 C 1.59375 -0.0117188 1.671875 -0.0195312 1.734375 -0.0507812 C 1.871094 -0.117188 1.917969 -0.214844 1.878906 -0.355469 C 1.871094 -0.414062 1.851562 -0.460938 1.832031 -0.503906 C 1.683594 -0.777344 1.632812 -1.0625 1.613281 -1.367188 C 1.59375 -1.800781 1.566406 -2.226562 1.613281 -2.648438 C 1.632812 -2.855469 1.625 -3.0625 1.585938 -3.257812 C 1.566406 -3.40625 1.554688 -3.554688 1.585938 -3.703125 C 1.613281 -3.847656 1.625 -3.996094 1.605469 -4.132812 C 1.566406 -4.65625 1.664062 -5.167969 1.722656 -5.671875 C 1.753906 -5.878906 1.820312 -6.074219 1.871094 -6.269531 C 1.898438 -6.359375 1.917969 -6.457031 1.9375 -6.546875 C 1.960938 -6.683594 1.890625 -6.773438 1.78125 -6.84375 C 1.734375 -6.863281 1.671875 -6.882812 1.613281 -6.882812 C 1.507812 -6.882812 1.40625 -6.890625 1.300781 -6.882812 C 1.074219 -6.84375 0.835938 -6.84375 0.601562 -6.84375 C 0.53125 -6.851562 0.460938 -6.84375 0.402344 -6.820312 C 0.246094 -6.78125 0.175781 -6.675781 0.1875 -6.515625 C 0.1875 -6.429688 0.214844 -6.359375 0.246094 -6.28125 C 0.296875 -6.171875 0.355469 -6.054688 0.394531 -5.9375 C 0.480469 -5.671875 0.5625 -5.40625 0.53125 -5.117188 C 0.472656 -4.605469 0.511719 -4.09375 0.5625 -3.582031 C 0.589844 -3.277344 0.589844 -2.984375 0.570312 -2.675781 C 0.542969 -2.265625 0.492188 -1.859375 0.503906 -1.445312 C 0.503906 -1.398438 0.503906 -1.347656 0.503906 -1.289062 C 0.472656 -1.003906 0.441406 -0.71875 0.316406 -0.460938 C 0.296875 -0.421875 0.285156 -0.394531 0.285156 -0.355469 C 0.246094 -0.195312 0.304688 -0.0976562 0.460938 -0.0585938 C 0.523438 -0.0507812 0.582031 -0.0507812 0.640625 -0.0390625 C 0.789062 -0.0390625 1.378906 -0.0117188 1.527344 -0.0117188 Z M 1.527344 -0.0117188 "/></g></g></g><g fill="#ffffff" fill-opacity="1"><g transform="translate(24.291824, 40.130177)"><g><path d="M 1.222656 -4.871094 C 1.230469 -4.953125 1.242188 -5.019531 1.28125 -5.089844 C 1.328125 -5.160156 1.40625 -5.160156 1.46875 -5.109375 C 1.515625 -5.058594 1.546875 -4.992188 1.554688 -4.933594 C 1.613281 -4.648438 1.703125 -4.378906 1.800781 -4.105469 C 1.820312 -4.066406 1.832031 -4.027344 1.832031 -3.976562 C 1.871094 -3.808594 1.917969 -3.652344 1.96875 -3.496094 C 2.066406 -3.230469 2.136719 -2.964844 2.15625 -2.675781 C 2.175781 -2.429688 2.246094 -2.183594 2.34375 -1.960938 C 2.429688 -1.773438 2.492188 -1.585938 2.511719 -1.386719 C 2.578125 -0.933594 2.804688 -0.5625 3.070312 -0.207031 C 3.179688 -0.0703125 3.328125 0.0117188 3.503906 0.03125 C 3.75 0.0507812 3.996094 0.0390625 4.234375 0.03125 C 4.253906 0.03125 4.28125 0.0195312 4.300781 0.0117188 C 4.460938 -0.0390625 4.546875 -0.15625 4.519531 -0.316406 C 4.507812 -0.414062 4.46875 -0.503906 4.441406 -0.589844 C 4.359375 -0.816406 4.320312 -1.042969 4.300781 -1.28125 C 4.28125 -1.515625 4.261719 -1.753906 4.242188 -1.988281 C 4.214844 -2.304688 4.214844 -2.617188 4.234375 -2.933594 C 4.261719 -3.25 4.273438 -3.5625 4.292969 -3.878906 C 4.300781 -3.917969 4.292969 -3.949219 4.292969 -3.988281 C 4.234375 -4.371094 4.253906 -4.746094 4.273438 -5.128906 C 4.292969 -5.425781 4.332031 -5.71875 4.449219 -5.984375 C 4.488281 -6.082031 4.527344 -6.183594 4.558594 -6.28125 C 4.636719 -6.574219 4.546875 -6.714844 4.242188 -6.742188 C 4.046875 -6.773438 3.859375 -6.792969 3.671875 -6.8125 C 3.601562 -6.820312 3.523438 -6.832031 3.457031 -6.8125 C 3.257812 -6.773438 3.167969 -6.617188 3.230469 -6.429688 C 3.257812 -6.351562 3.308594 -6.269531 3.355469 -6.203125 C 3.496094 -6.003906 3.5625 -5.789062 3.574219 -5.542969 C 3.582031 -5.21875 3.59375 -4.894531 3.664062 -4.578125 C 3.703125 -4.351562 3.703125 -4.125 3.671875 -3.898438 C 3.664062 -3.78125 3.640625 -3.664062 3.664062 -3.542969 C 3.710938 -3.230469 3.691406 -2.902344 3.691406 -2.578125 C 3.691406 -2.519531 3.691406 -2.460938 3.683594 -2.402344 C 3.683594 -2.363281 3.671875 -2.3125 3.640625 -2.285156 C 3.59375 -2.214844 3.503906 -2.207031 3.457031 -2.273438 C 3.425781 -2.304688 3.40625 -2.34375 3.386719 -2.382812 C 3.355469 -2.453125 3.335938 -2.519531 3.296875 -2.589844 C 3.148438 -2.882812 3.050781 -3.199219 3.003906 -3.523438 C 2.972656 -3.761719 2.914062 -3.988281 2.855469 -4.214844 C 2.738281 -4.605469 2.617188 -5 2.550781 -5.414062 C 2.480469 -5.855469 2.246094 -6.222656 1.910156 -6.515625 C 1.722656 -6.675781 1.507812 -6.78125 1.261719 -6.832031 C 1.035156 -6.871094 0.796875 -6.851562 0.5625 -6.832031 C 0.523438 -6.820312 0.472656 -6.8125 0.433594 -6.792969 C 0.285156 -6.722656 0.234375 -6.625 0.285156 -6.46875 C 0.296875 -6.429688 0.304688 -6.390625 0.324219 -6.351562 C 0.421875 -6.164062 0.453125 -5.957031 0.480469 -5.75 C 0.53125 -5.363281 0.5625 -4.980469 0.628906 -4.597656 C 0.679688 -4.332031 0.699219 -4.074219 0.667969 -3.808594 C 0.640625 -3.542969 0.640625 -3.277344 0.679688 -3.011719 C 0.699219 -2.855469 0.699219 -2.6875 0.660156 -2.53125 C 0.582031 -2.175781 0.542969 -1.820312 0.5625 -1.457031 C 0.582031 -1.140625 0.492188 -0.847656 0.277344 -0.601562 C 0.226562 -0.550781 0.1875 -0.480469 0.15625 -0.414062 C 0.0976562 -0.277344 0.148438 -0.136719 0.277344 -0.0585938 C 0.355469 -0.0117188 0.433594 0 0.511719 0 C 0.796875 0 1.082031 0 1.367188 -0.0117188 C 1.457031 -0.0117188 1.546875 -0.03125 1.632812 -0.0585938 C 1.792969 -0.128906 1.839844 -0.265625 1.742188 -0.414062 C 1.703125 -0.460938 1.652344 -0.511719 1.605469 -0.5625 C 1.488281 -0.679688 1.417969 -0.816406 1.378906 -0.972656 C 1.347656 -1.09375 1.328125 -1.210938 1.308594 -1.328125 C 1.28125 -1.496094 1.261719 -1.671875 1.222656 -1.851562 C 1.152344 -2.175781 1.101562 -2.5 1.160156 -2.824219 C 1.179688 -2.902344 1.179688 -2.972656 1.179688 -3.050781 C 1.179688 -3.257812 1.179688 -3.476562 1.179688 -3.691406 C 1.179688 -4.085938 1.179688 -4.480469 1.222656 -4.871094 Z M 1.222656 -4.871094 "/></g></g></g><g fill="#ffffff" fill-opacity="1"><g transform="translate(29.528763, 40.130177)"><g><path d="M 1.761719 -0.0585938 C 2.027344 -0.078125 2.117188 -0.234375 2.007812 -0.480469 C 1.980469 -0.542969 1.949219 -0.589844 1.929688 -0.640625 C 1.890625 -0.71875 1.851562 -0.808594 1.832031 -0.886719 C 1.773438 -1.140625 1.703125 -1.386719 1.683594 -1.644531 C 1.664062 -1.9375 1.632812 -2.234375 1.613281 -2.519531 C 1.605469 -2.71875 1.652344 -2.902344 1.761719 -3.070312 C 1.890625 -3.269531 2.085938 -3.316406 2.292969 -3.191406 C 2.34375 -3.160156 2.390625 -3.121094 2.429688 -3.070312 C 2.578125 -2.914062 2.707031 -2.738281 2.785156 -2.519531 C 2.921875 -2.175781 3.050781 -1.839844 3.179688 -1.496094 C 3.230469 -1.367188 3.25 -1.242188 3.289062 -1.113281 C 3.308594 -1.035156 3.316406 -0.953125 3.335938 -0.875 C 3.425781 -0.570312 3.601562 -0.335938 3.839844 -0.136719 C 3.929688 -0.0703125 4.027344 -0.0195312 4.144531 -0.0117188 C 4.441406 0.0195312 4.726562 0.0117188 5.011719 -0.0976562 C 5.257812 -0.195312 5.394531 -0.382812 5.40625 -0.660156 C 5.40625 -0.828125 5.40625 -0.996094 5.40625 -1.160156 C 5.40625 -1.210938 5.394531 -1.25 5.386719 -1.300781 C 5.324219 -1.566406 5.078125 -1.722656 4.804688 -1.671875 C 4.648438 -1.644531 4.585938 -1.527344 4.65625 -1.378906 C 4.6875 -1.328125 4.726562 -1.289062 4.753906 -1.230469 C 4.804688 -1.160156 4.824219 -1.074219 4.804688 -0.984375 C 4.746094 -0.769531 4.539062 -0.699219 4.371094 -0.847656 C 4.3125 -0.894531 4.273438 -0.964844 4.234375 -1.042969 C 4.175781 -1.152344 4.144531 -1.269531 4.125 -1.398438 C 4.09375 -1.632812 4.074219 -1.859375 4.074219 -2.097656 C 4.074219 -2.332031 4.085938 -2.570312 4.074219 -2.804688 C 4.066406 -3.003906 4.046875 -3.199219 3.957031 -3.386719 C 3.867188 -3.574219 3.730469 -3.691406 3.523438 -3.730469 C 3.464844 -3.742188 3.394531 -3.742188 3.328125 -3.75 C 3.25 -3.769531 3.167969 -3.78125 3.089844 -3.800781 C 2.933594 -3.859375 2.894531 -3.996094 2.984375 -4.132812 C 3.023438 -4.195312 3.070312 -4.242188 3.121094 -4.28125 C 3.191406 -4.351562 3.257812 -4.410156 3.335938 -4.46875 C 3.464844 -4.558594 3.574219 -4.675781 3.632812 -4.8125 C 3.75 -5.058594 3.898438 -5.296875 4.027344 -5.53125 C 4.164062 -5.796875 4.332031 -6.035156 4.558594 -6.230469 C 4.617188 -6.28125 4.675781 -6.339844 4.726562 -6.398438 C 4.824219 -6.527344 4.792969 -6.675781 4.648438 -6.753906 C 4.566406 -6.792969 4.480469 -6.800781 4.390625 -6.800781 C 4.105469 -6.800781 3.828125 -6.792969 3.554688 -6.792969 C 3.367188 -6.792969 3.230469 -6.703125 3.140625 -6.546875 C 3.050781 -6.410156 3.011719 -6.261719 2.984375 -6.113281 C 2.964844 -5.984375 2.953125 -5.867188 2.933594 -5.738281 C 2.921875 -5.601562 2.894531 -5.464844 2.835938 -5.335938 C 2.746094 -5.148438 2.65625 -4.960938 2.570312 -4.773438 C 2.472656 -4.597656 2.324219 -4.460938 2.175781 -4.332031 C 1.960938 -4.15625 1.691406 -4.222656 1.585938 -4.488281 C 1.554688 -4.539062 1.546875 -4.597656 1.527344 -4.65625 C 1.507812 -4.734375 1.488281 -4.824219 1.46875 -4.914062 C 1.425781 -5.109375 1.425781 -5.304688 1.476562 -5.503906 C 1.496094 -5.609375 1.527344 -5.710938 1.554688 -5.816406 C 1.585938 -5.984375 1.632812 -6.152344 1.714844 -6.300781 C 1.734375 -6.351562 1.761719 -6.410156 1.773438 -6.46875 C 1.820312 -6.65625 1.753906 -6.773438 1.554688 -6.8125 C 1.507812 -6.820312 1.46875 -6.832031 1.417969 -6.832031 C 1.328125 -6.832031 1.242188 -6.832031 1.152344 -6.820312 C 0.953125 -6.800781 0.757812 -6.792969 0.5625 -6.820312 C 0.503906 -6.832031 0.433594 -6.820312 0.363281 -6.800781 C 0.207031 -6.761719 0.136719 -6.636719 0.1875 -6.488281 C 0.207031 -6.429688 0.234375 -6.378906 0.257812 -6.320312 C 0.355469 -6.125 0.421875 -5.917969 0.453125 -5.691406 C 0.480469 -5.523438 0.480469 -5.355469 0.472656 -5.1875 C 0.433594 -4.667969 0.492188 -4.15625 0.542969 -3.640625 C 0.582031 -3.289062 0.609375 -2.933594 0.5625 -2.570312 C 0.53125 -2.292969 0.542969 -2.007812 0.570312 -1.734375 C 0.582031 -1.59375 0.582031 -1.457031 0.589844 -1.320312 C 0.609375 -1.074219 0.5625 -0.847656 0.433594 -0.640625 C 0.402344 -0.582031 0.363281 -0.511719 0.355469 -0.433594 C 0.304688 -0.265625 0.382812 -0.148438 0.550781 -0.109375 C 0.582031 -0.0976562 0.609375 -0.0898438 0.640625 -0.0898438 C 0.875 -0.0703125 1.101562 -0.0390625 1.339844 -0.0507812 C 1.476562 -0.0507812 1.625 -0.0390625 1.761719 -0.0585938 Z M 1.761719 -0.0585938 "/></g></g></g><g fill="#ffffff" fill-opacity="1"><g transform="translate(35.38585, 40.130177)"><g/></g></g><g fill="#ffffff" fill-opacity="1"><g transform="translate(38.585164, 40.130177)"><g><path d="M 3.023438 0.0117188 C 3.210938 0.03125 3.394531 0 3.582031 -0.0507812 C 3.691406 -0.078125 3.789062 -0.128906 3.878906 -0.195312 C 4.085938 -0.394531 4.253906 -0.609375 4.320312 -0.894531 C 4.351562 -1.023438 4.378906 -1.152344 4.421875 -1.28125 C 4.441406 -1.378906 4.460938 -1.476562 4.460938 -1.585938 C 4.460938 -1.742188 4.460938 -1.890625 4.460938 -2.046875 C 4.441406 -2.371094 4.371094 -2.6875 4.175781 -2.953125 C 4.113281 -3.03125 4.066406 -3.121094 4.015625 -3.199219 C 3.957031 -3.308594 3.886719 -3.394531 3.800781 -3.476562 C 3.5625 -3.691406 3.316406 -3.878906 3.023438 -4.007812 C 2.597656 -4.195312 2.207031 -4.441406 1.8125 -4.6875 C 1.703125 -4.765625 1.625 -4.851562 1.554688 -4.960938 C 1.367188 -5.277344 1.546875 -5.796875 1.8125 -5.964844 C 2 -6.082031 2.214844 -6.152344 2.441406 -6.132812 C 2.667969 -6.113281 2.824219 -5.957031 2.835938 -5.730469 C 2.835938 -5.652344 2.824219 -5.570312 2.816406 -5.492188 C 2.804688 -5.433594 2.796875 -5.375 2.796875 -5.316406 C 2.796875 -5.179688 2.855469 -5.089844 2.992188 -5.050781 C 3.160156 -5 3.335938 -4.980469 3.515625 -5.011719 C 3.78125 -5.070312 3.917969 -5.21875 3.9375 -5.492188 C 3.949219 -5.710938 3.9375 -5.925781 3.886719 -6.132812 C 3.878906 -6.222656 3.847656 -6.300781 3.808594 -6.390625 C 3.703125 -6.625 3.515625 -6.761719 3.25 -6.792969 C 3.042969 -6.8125 2.824219 -6.84375 2.617188 -6.863281 C 2.539062 -6.871094 2.472656 -6.871094 2.390625 -6.863281 C 1.9375 -6.84375 1.476562 -6.792969 1.015625 -6.832031 C 0.914062 -6.84375 0.816406 -6.84375 0.726562 -6.832031 C 0.5625 -6.8125 0.460938 -6.695312 0.460938 -6.527344 C 0.453125 -6.46875 0.460938 -6.410156 0.472656 -6.359375 C 0.542969 -5.917969 0.53125 -5.472656 0.441406 -5.039062 C 0.414062 -4.933594 0.394531 -4.824219 0.375 -4.714844 C 0.324219 -4.46875 0.335938 -4.222656 0.382812 -3.976562 C 0.394531 -3.898438 0.414062 -3.828125 0.441406 -3.761719 C 0.542969 -3.554688 0.71875 -3.476562 0.933594 -3.523438 C 1.023438 -3.542969 1.113281 -3.574219 1.199219 -3.613281 C 1.359375 -3.664062 1.507812 -3.683594 1.664062 -3.664062 C 1.9375 -3.613281 2.207031 -3.542969 2.460938 -3.414062 C 2.628906 -3.328125 2.757812 -3.199219 2.835938 -3.03125 C 2.902344 -2.894531 2.964844 -2.746094 3.03125 -2.609375 C 3.21875 -2.234375 3.21875 -1.859375 3.050781 -1.476562 C 3.011719 -1.398438 2.972656 -1.320312 2.933594 -1.242188 C 2.882812 -1.152344 2.816406 -1.074219 2.746094 -1.003906 C 2.511719 -0.796875 2.144531 -0.738281 1.878906 -0.886719 C 1.632812 -1.015625 1.496094 -1.230469 1.46875 -1.507812 C 1.4375 -1.714844 1.46875 -1.910156 1.574219 -2.097656 C 1.613281 -2.15625 1.652344 -2.226562 1.671875 -2.292969 C 1.722656 -2.441406 1.652344 -2.558594 1.507812 -2.597656 C 1.46875 -2.617188 1.417969 -2.628906 1.378906 -2.628906 C 1.171875 -2.648438 0.984375 -2.609375 0.796875 -2.53125 C 0.660156 -2.472656 0.5625 -2.363281 0.503906 -2.214844 C 0.480469 -2.144531 0.460938 -2.078125 0.441406 -2.007812 C 0.324219 -1.554688 0.277344 -1.09375 0.226562 -0.628906 C 0.214844 -0.582031 0.226562 -0.53125 0.226562 -0.480469 C 0.226562 -0.382812 0.265625 -0.296875 0.324219 -0.226562 C 0.480469 -0.0585938 0.679688 0.0195312 0.90625 0.0117188 C 1.28125 -0.0195312 1.664062 -0.0117188 2.097656 0 C 2.371094 0 2.699219 -0.0117188 3.023438 0.0117188 Z M 3.023438 0.0117188 "/></g></g></g><g fill="#ffffff" fill-opacity="1"><g transform="translate(43.62523, 40.130177)"><g><path d="M 1.859375 -6.871094 C 1.605469 -6.871094 1.113281 -6.871094 0.738281 -6.871094 C 0.667969 -6.871094 0.589844 -6.863281 0.523438 -6.851562 C 0.363281 -6.820312 0.257812 -6.722656 0.167969 -6.605469 C 0.117188 -6.515625 0.0898438 -6.429688 0.0703125 -6.328125 C 0.0390625 -6.171875 0.0195312 -6.003906 -0.0117188 -5.835938 C -0.03125 -5.699219 -0.03125 -5.570312 -0.0117188 -5.433594 C -0.0117188 -5.34375 0.0195312 -5.265625 0.0703125 -5.1875 C 0.148438 -5.058594 0.277344 -5.050781 0.382812 -5.148438 C 0.453125 -5.207031 0.503906 -5.277344 0.542969 -5.355469 C 0.589844 -5.464844 0.640625 -5.570312 0.699219 -5.671875 C 0.789062 -5.835938 0.925781 -5.945312 1.09375 -6.003906 C 1.289062 -6.082031 1.476562 -6.015625 1.585938 -5.835938 C 1.625 -5.757812 1.664062 -5.691406 1.683594 -5.609375 C 1.773438 -5.355469 1.832031 -5.089844 1.832031 -4.8125 C 1.832031 -4.421875 1.871094 -4.035156 1.851562 -3.640625 C 1.839844 -3.601562 1.851562 -3.554688 1.859375 -3.515625 C 1.859375 -3.355469 1.878906 -3.191406 1.878906 -3.03125 C 1.878906 -2.511719 1.890625 -1.988281 1.832031 -1.46875 C 1.8125 -1.28125 1.773438 -1.09375 1.691406 -0.914062 C 1.632812 -0.796875 1.585938 -0.6875 1.527344 -0.582031 C 1.496094 -0.503906 1.46875 -0.421875 1.445312 -0.355469 C 1.417969 -0.1875 1.476562 -0.078125 1.625 -0.0117188 C 1.703125 0.03125 1.792969 0.0390625 1.878906 0.0507812 C 2.085938 0.0507812 2.292969 0.0507812 2.5 0.0195312 C 2.699219 -0.0117188 2.902344 -0.0507812 3.109375 -0.0585938 C 3.160156 -0.0585938 3.210938 -0.0703125 3.257812 -0.078125 C 3.367188 -0.117188 3.425781 -0.207031 3.414062 -0.316406 C 3.40625 -0.375 3.386719 -0.433594 3.375 -0.492188 C 3.347656 -0.589844 3.308594 -0.6875 3.277344 -0.789062 C 3.191406 -1.023438 3.160156 -1.28125 3.082031 -1.527344 C 2.984375 -1.871094 2.964844 -2.226562 2.945312 -2.570312 C 2.921875 -2.855469 2.933594 -3.128906 2.933594 -3.414062 C 2.933594 -3.574219 2.933594 -3.730469 2.953125 -3.898438 C 2.972656 -4.046875 2.972656 -4.203125 2.953125 -4.359375 C 2.921875 -4.585938 2.921875 -4.824219 2.933594 -5.058594 C 2.945312 -5.257812 2.984375 -5.453125 3.03125 -5.652344 C 3.070312 -5.777344 3.148438 -5.898438 3.25 -5.996094 C 3.355469 -6.09375 3.476562 -6.105469 3.601562 -6.074219 C 3.671875 -6.054688 3.722656 -6.015625 3.769531 -5.976562 C 3.917969 -5.828125 4.046875 -5.671875 4.132812 -5.472656 C 4.175781 -5.386719 4.214844 -5.285156 4.261719 -5.199219 C 4.292969 -5.148438 4.320312 -5.097656 4.359375 -5.050781 C 4.449219 -4.960938 4.566406 -4.980469 4.648438 -5.078125 C 4.695312 -5.140625 4.726562 -5.21875 4.746094 -5.296875 C 4.832031 -5.710938 4.765625 -6.105469 4.546875 -6.46875 C 4.421875 -6.683594 4.214844 -6.8125 3.957031 -6.832031 C 3.867188 -6.84375 3.789062 -6.84375 3.710938 -6.84375 C 3.5625 -6.851562 3.414062 -6.84375 3.269531 -6.863281 C 2.945312 -6.902344 2.609375 -6.902344 2.285156 -6.882812 C 2.144531 -6.871094 1.871094 -6.871094 1.859375 -6.871094 Z M 1.859375 -6.871094 "/></g></g></g><g fill="#ffffff" fill-opacity="1"><g transform="translate(48.832638, 40.130177)"><g><path d="M 0.855469 -5.886719 C 0.855469 -5.835938 0.855469 -5.789062 0.855469 -5.738281 C 0.875 -5.296875 0.816406 -4.851562 0.71875 -4.429688 C 0.699219 -4.351562 0.679688 -4.273438 0.667969 -4.183594 C 0.628906 -3.859375 0.550781 -3.535156 0.433594 -3.230469 C 0.375 -3.070312 0.335938 -2.902344 0.324219 -2.738281 C 0.304688 -2.511719 0.277344 -2.285156 0.234375 -2.058594 C 0.175781 -1.78125 0.15625 -1.507812 0.148438 -1.230469 C 0.117188 -0.726562 0.601562 -0.207031 1.003906 -0.117188 C 1.386719 -0.03125 1.78125 0.03125 2.183594 -0.0195312 C 2.382812 -0.0507812 2.578125 -0.0507812 2.777344 -0.0195312 C 3.101562 0.03125 3.414062 0.0195312 3.742188 -0.0507812 C 3.996094 -0.109375 4.222656 -0.214844 4.390625 -0.421875 C 4.585938 -0.660156 4.675781 -0.945312 4.695312 -1.242188 C 4.714844 -1.425781 4.707031 -1.625 4.667969 -1.8125 C 4.636719 -2.027344 4.597656 -2.246094 4.578125 -2.460938 C 4.546875 -2.675781 4.5 -2.882812 4.429688 -3.089844 C 4.390625 -3.210938 4.339844 -3.335938 4.300781 -3.464844 C 4.242188 -3.640625 4.203125 -3.828125 4.214844 -4.027344 C 4.214844 -4.3125 4.164062 -4.597656 4.085938 -4.871094 C 4.046875 -5.011719 4.007812 -5.160156 3.996094 -5.304688 C 3.957031 -5.679688 3.917969 -6.0625 3.976562 -6.449219 C 3.976562 -6.46875 3.976562 -6.488281 3.976562 -6.507812 C 3.976562 -6.644531 3.910156 -6.734375 3.789062 -6.773438 C 3.730469 -6.792969 3.671875 -6.800781 3.613281 -6.800781 C 3.515625 -6.800781 3.40625 -6.800781 3.308594 -6.800781 C 2.875 -6.792969 2.453125 -6.78125 2.027344 -6.820312 C 1.761719 -6.851562 1.496094 -6.84375 1.230469 -6.832031 C 1.035156 -6.820312 0.835938 -6.722656 0.855469 -6.417969 C 0.867188 -6.242188 0.855469 -6.0625 0.855469 -5.886719 Z M 1.386719 -3.082031 C 1.339844 -3.445312 1.398438 -3.800781 1.457031 -4.15625 C 1.496094 -4.339844 1.535156 -4.519531 1.574219 -4.695312 C 1.605469 -4.84375 1.632812 -4.980469 1.664062 -5.128906 C 1.703125 -5.335938 1.773438 -5.523438 1.898438 -5.699219 C 1.949219 -5.769531 2.007812 -5.835938 2.066406 -5.898438 C 2.285156 -6.082031 2.550781 -6.082031 2.765625 -5.886719 C 2.953125 -5.699219 3.082031 -5.484375 3.148438 -5.226562 C 3.160156 -5.207031 3.167969 -5.1875 3.167969 -5.167969 C 3.230469 -4.785156 3.296875 -4.410156 3.355469 -4.035156 C 3.367188 -3.957031 3.375 -3.878906 3.375 -3.789062 C 3.375 -3.582031 3.394531 -3.386719 3.40625 -3.179688 C 3.425781 -2.699219 3.394531 -2.226562 3.296875 -1.753906 C 3.210938 -1.328125 2.921875 -1.09375 2.53125 -0.984375 C 2.183594 -0.894531 1.9375 -1.015625 1.761719 -1.308594 C 1.527344 -1.691406 1.339844 -2.105469 1.386719 -2.578125 C 1.386719 -2.636719 1.386719 -2.699219 1.386719 -2.757812 C 1.386719 -2.863281 1.398438 -2.972656 1.386719 -3.082031 Z M 1.386719 -3.082031 "/></g></g></g><g fill="#ffffff" fill-opacity="1"><g transform="translate(54.128642, 40.130177)"><g><path d="M 0.699219 -6.851562 C 0.621094 -6.851562 0.542969 -6.851562 0.460938 -6.820312 C 0.324219 -6.78125 0.257812 -6.683594 0.265625 -6.535156 C 0.265625 -6.507812 0.277344 -6.476562 0.285156 -6.449219 C 0.324219 -6.25 0.363281 -6.042969 0.414062 -5.847656 C 0.480469 -5.5625 0.511719 -5.265625 0.511719 -4.972656 C 0.523438 -4.507812 0.523438 -4.046875 0.523438 -3.582031 C 0.53125 -3.289062 0.53125 -2.992188 0.492188 -2.707031 C 0.460938 -2.460938 0.460938 -2.226562 0.492188 -1.980469 C 0.511719 -1.871094 0.523438 -1.761719 0.511719 -1.652344 C 0.460938 -1.289062 0.441406 -0.914062 0.277344 -0.582031 C 0.246094 -0.503906 0.214844 -0.421875 0.214844 -0.34375 C 0.195312 -0.175781 0.304688 -0.0507812 0.472656 -0.03125 C 0.523438 -0.0195312 0.582031 -0.0195312 0.628906 -0.03125 C 0.875 -0.0507812 1.121094 -0.0585938 1.378906 -0.0507812 C 1.476562 -0.0507812 1.566406 -0.0390625 1.664062 -0.0390625 C 1.714844 -0.0390625 1.761719 -0.0507812 1.8125 -0.0585938 C 1.980469 -0.0976562 2.039062 -0.234375 1.96875 -0.375 C 1.9375 -0.421875 1.910156 -0.460938 1.878906 -0.503906 C 1.722656 -0.699219 1.644531 -0.925781 1.625 -1.171875 C 1.59375 -1.398438 1.574219 -1.613281 1.546875 -1.832031 C 1.507812 -2.234375 1.664062 -2.570312 1.949219 -2.835938 C 2.058594 -2.933594 2.183594 -2.964844 2.324219 -2.945312 C 2.519531 -2.914062 2.667969 -2.804688 2.757812 -2.609375 C 2.804688 -2.5 2.824219 -2.371094 2.855469 -2.253906 C 2.882812 -2.078125 2.921875 -1.910156 2.992188 -1.742188 C 3.042969 -1.625 3.070312 -1.507812 3.082031 -1.378906 C 3.109375 -1.054688 3.199219 -0.75 3.277344 -0.433594 C 3.328125 -0.246094 3.445312 -0.117188 3.632812 -0.078125 C 3.789062 -0.0390625 3.949219 0 4.105469 0.03125 C 4.300781 0.0585938 4.5 0.0195312 4.6875 -0.0507812 C 4.863281 -0.109375 4.921875 -0.257812 4.863281 -0.421875 C 4.832031 -0.503906 4.792969 -0.570312 4.753906 -0.640625 C 4.675781 -0.769531 4.597656 -0.886719 4.539062 -1.023438 C 4.421875 -1.25 4.3125 -1.488281 4.195312 -1.714844 C 4.085938 -1.9375 3.988281 -2.164062 3.910156 -2.410156 C 3.828125 -2.675781 3.691406 -2.902344 3.535156 -3.121094 C 3.503906 -3.160156 3.476562 -3.191406 3.445312 -3.230469 C 3.335938 -3.375 3.347656 -3.503906 3.476562 -3.640625 C 3.574219 -3.75 3.691406 -3.820312 3.800781 -3.898438 C 3.917969 -3.976562 4.027344 -4.066406 4.132812 -4.164062 C 4.273438 -4.300781 4.339844 -4.46875 4.351562 -4.675781 C 4.359375 -4.804688 4.359375 -4.941406 4.339844 -5.070312 C 4.292969 -5.34375 4.242188 -5.621094 4.195312 -5.898438 C 4.164062 -6.054688 4.132812 -6.210938 4.132812 -6.371094 C 4.144531 -6.417969 4.132812 -6.457031 4.132812 -6.507812 C 4.125 -6.605469 4.066406 -6.683594 3.976562 -6.722656 C 3.9375 -6.742188 3.886719 -6.761719 3.847656 -6.761719 C 3.601562 -6.8125 3.355469 -6.84375 3.101562 -6.8125 C 2.875 -6.792969 2.648438 -6.792969 2.421875 -6.8125 C 2.085938 -6.84375 1.761719 -6.851562 1.425781 -6.851562 C 1.191406 -6.851562 0.945312 -6.851562 0.699219 -6.851562 Z M 1.691406 -5.386719 C 1.734375 -5.492188 1.78125 -5.601562 1.851562 -5.691406 C 2.019531 -5.898438 2.246094 -6.003906 2.492188 -6.042969 C 2.796875 -6.09375 3.011719 -5.957031 3.109375 -5.660156 C 3.199219 -5.355469 3.230469 -5.039062 3.042969 -4.753906 C 3.003906 -4.695312 2.964844 -4.648438 2.921875 -4.597656 C 2.757812 -4.429688 2.597656 -4.253906 2.410156 -4.113281 C 2.3125 -4.035156 2.226562 -3.949219 2.136719 -3.859375 C 2.078125 -3.800781 2.019531 -3.75 1.949219 -3.722656 C 1.792969 -3.640625 1.652344 -3.691406 1.574219 -3.839844 C 1.546875 -3.910156 1.535156 -3.96875 1.535156 -4.035156 C 1.527344 -4.132812 1.535156 -4.242188 1.535156 -4.339844 C 1.535156 -4.695312 1.574219 -5.039062 1.691406 -5.386719 Z M 1.691406 -5.386719 "/></g></g></g><g fill="#ffffff" fill-opacity="1"><g transform="translate(59.493549, 40.130177)"><g><path d="M 0.609375 -6.84375 C 0.542969 -6.84375 0.472656 -6.84375 0.414062 -6.832031 C 0.207031 -6.800781 0.117188 -6.65625 0.195312 -6.46875 C 0.234375 -6.390625 0.277344 -6.320312 0.316406 -6.25 C 0.421875 -6.082031 0.492188 -5.898438 0.480469 -5.691406 C 0.472656 -5.304688 0.503906 -4.921875 0.511719 -4.546875 C 0.53125 -4.027344 0.511719 -3.496094 0.601562 -2.984375 C 0.601562 -2.964844 0.601562 -2.933594 0.601562 -2.914062 C 0.621094 -2.5 0.621094 -2.097656 0.609375 -1.683594 C 0.589844 -1.300781 0.523438 -0.925781 0.324219 -0.582031 C 0.296875 -0.542969 0.277344 -0.492188 0.257812 -0.441406 C 0.246094 -0.414062 0.226562 -0.375 0.226562 -0.335938 C 0.207031 -0.195312 0.277344 -0.0898438 0.414062 -0.0585938 C 0.472656 -0.0390625 0.542969 -0.0390625 0.609375 -0.0390625 C 0.828125 -0.0390625 1.054688 -0.0390625 1.269531 -0.0507812 C 1.496094 -0.0507812 1.722656 -0.0390625 1.949219 0 C 2.027344 0.0117188 2.105469 0.03125 2.183594 0.03125 C 2.492188 0 2.796875 0.0117188 3.089844 0.03125 C 3.277344 0.03125 3.476562 0.0117188 3.664062 0 C 3.769531 -0.0117188 3.867188 -0.0195312 3.957031 -0.0703125 C 4.15625 -0.167969 4.273438 -0.316406 4.261719 -0.542969 C 4.261719 -0.640625 4.242188 -0.75 4.234375 -0.847656 C 4.214844 -1.003906 4.183594 -1.152344 4.203125 -1.308594 C 4.234375 -1.535156 4.214844 -1.761719 4.183594 -1.988281 C 4.144531 -2.265625 4.046875 -2.363281 3.78125 -2.402344 C 3.75 -2.410156 3.730469 -2.410156 3.710938 -2.410156 C 3.484375 -2.429688 3.269531 -2.390625 3.050781 -2.371094 C 3.03125 -2.371094 3.011719 -2.363281 2.992188 -2.351562 C 2.875 -2.304688 2.824219 -2.195312 2.894531 -2.078125 C 2.921875 -2.027344 2.964844 -1.988281 3.003906 -1.9375 C 3.0625 -1.871094 3.121094 -1.792969 3.160156 -1.703125 C 3.230469 -1.527344 3.238281 -1.347656 3.148438 -1.171875 C 3.023438 -0.945312 2.609375 -0.777344 2.351562 -0.894531 C 1.960938 -1.082031 1.664062 -1.347656 1.632812 -1.8125 C 1.605469 -2.125 1.605469 -2.429688 1.652344 -2.738281 C 1.664062 -2.875 1.703125 -3.003906 1.742188 -3.128906 C 1.792969 -3.308594 1.898438 -3.4375 2.058594 -3.535156 C 2.226562 -3.640625 2.410156 -3.710938 2.617188 -3.710938 C 2.785156 -3.710938 2.953125 -3.691406 3.109375 -3.621094 C 3.179688 -3.59375 3.25 -3.5625 3.316406 -3.554688 C 3.484375 -3.515625 3.59375 -3.582031 3.601562 -3.761719 C 3.613281 -3.839844 3.613281 -3.917969 3.59375 -3.996094 C 3.523438 -4.273438 3.386719 -4.519531 3.199219 -4.734375 C 3.121094 -4.824219 3.023438 -4.851562 2.902344 -4.851562 C 2.804688 -4.863281 2.71875 -4.832031 2.628906 -4.792969 C 2.441406 -4.714844 2.265625 -4.605469 2.105469 -4.46875 C 2.039062 -4.421875 1.980469 -4.371094 1.898438 -4.339844 C 1.734375 -4.28125 1.59375 -4.332031 1.515625 -4.488281 C 1.476562 -4.566406 1.445312 -4.648438 1.445312 -4.746094 C 1.4375 -4.851562 1.4375 -4.960938 1.4375 -5.070312 C 1.425781 -5.304688 1.527344 -5.492188 1.671875 -5.671875 C 1.878906 -5.917969 2.144531 -6.054688 2.453125 -6.132812 C 2.746094 -6.210938 3.003906 -6.152344 3.230469 -5.957031 C 3.355469 -5.855469 3.476562 -5.738281 3.59375 -5.632812 C 3.640625 -5.589844 3.691406 -5.542969 3.75 -5.511719 C 3.828125 -5.464844 3.929688 -5.503906 3.957031 -5.589844 C 3.996094 -5.679688 3.988281 -5.769531 3.96875 -5.855469 C 3.929688 -6.015625 3.886719 -6.171875 3.859375 -6.328125 C 3.808594 -6.605469 3.652344 -6.773438 3.386719 -6.84375 C 3.238281 -6.882812 3.089844 -6.890625 2.945312 -6.890625 C 2.578125 -6.882812 2.214844 -6.882812 1.839844 -6.871094 C 1.753906 -6.871094 1.652344 -6.871094 1.554688 -6.863281 C 1.367188 -6.851562 0.738281 -6.84375 0.609375 -6.84375 Z M 0.609375 -6.84375 "/></g></g></g></svg>