<svg xmlns="http://www.w3.org/2000/svg" xmlns:xlink="http://www.w3.org/1999/xlink" width="256" zoomAndPan="magnify" viewBox="0 0 192 191.999996" height="256" preserveAspectRatio="xMidYMid meet" version="1.0"><defs><g/><clipPath id="58ed031cec"><path d="M 8.84375 9.6875 L 183 9.6875 L 183 182.980469 L 8.84375 182.980469 Z M 8.84375 9.6875 " clip-rule="nonzero"/></clipPath><clipPath id="dfc82c8166"><path d="M 96 9.6875 C 47.863281 9.6875 8.84375 48.332031 8.84375 96 C 8.84375 143.667969 47.863281 182.3125 96 182.3125 C 144.136719 182.3125 183.15625 143.667969 183.15625 96 C 183.15625 48.332031 144.136719 9.6875 96 9.6875 " clip-rule="nonzero"/></clipPath></defs><g clip-path="url(#58ed031cec)"><g clip-path="url(#dfc82c8166)"><path fill="#ef4440" d="M 8.84375 9.6875 L 182.136719 9.6875 L 182.136719 182.980469 L 8.84375 182.980469 Z M 8.84375 9.6875 " fill-opacity="1" fill-rule="nonzero"/></g></g><g fill="#333652" fill-opacity="0.9882"><g transform="translate(23.394881, 162.003512)"><g><path d="M 83.113281 -44.714844 C 82.238281 -50.148438 81.535156 -55.585938 80.660156 -61.019531 C 80.132812 -64.175781 79.609375 -67.507812 79.082031 -70.664062 C 78.554688 -75.050781 77.503906 -79.433594 75.574219 -83.464844 C 73.820312 -87.148438 72.066406 -90.832031 70.664062 -94.6875 C 70.488281 -95.566406 69.964844 -96.617188 69.4375 -97.492188 C 67.859375 -100.472656 66.457031 -103.628906 64.878906 -106.613281 C 64.175781 -107.839844 63.476562 -109.242188 62.597656 -110.292969 C 57.339844 -116.429688 50.851562 -120.640625 42.609375 -121.515625 C 38.226562 -121.867188 33.84375 -122.042969 29.632812 -121.515625 C 24.199219 -120.988281 18.9375 -120.816406 13.5 -121.515625 C 11.921875 -121.867188 10.171875 -121.867188 8.417969 -121.515625 C 4.382812 -121.164062 2.804688 -118.359375 4.382812 -114.503906 C 4.734375 -113.625 5.261719 -112.75 5.785156 -111.695312 C 8.066406 -107.839844 8.941406 -103.628906 9.292969 -99.070312 C 9.820312 -93.109375 10.34375 -87.148438 10.171875 -81.011719 C 10.171875 -79.957031 10.34375 -78.730469 10.519531 -77.503906 C 10.871094 -72.769531 11.046875 -68.210938 10.34375 -63.476562 C 9.820312 -59.96875 9.820312 -56.636719 10.34375 -53.304688 C 10.695312 -51.203125 10.871094 -49.097656 10.871094 -46.992188 C 11.046875 -41.382812 10.519531 -35.769531 9.644531 -30.160156 C 8.59375 -22.269531 9.292969 -20.339844 4.382812 -10.695312 C 3.859375 -9.644531 3.332031 -8.417969 3.15625 -7.363281 C 2.628906 -4.03125 4.207031 -1.402344 7.539062 -0.351562 C 8.242188 -0.175781 8.941406 -0.175781 9.820312 0 C 16.484375 0.875 23.320312 0.875 30.160156 0.351562 C 34.894531 0 39.804688 -0.175781 44.714844 0.351562 C 46.292969 0.527344 48.046875 0.703125 49.796875 0.527344 C 54.882812 -0.175781 60.144531 -1.226562 65.054688 -2.628906 C 69.085938 -3.859375 72.066406 -6.136719 74.171875 -9.644531 C 75.925781 -12.800781 77.855469 -15.78125 79.609375 -18.761719 C 80.660156 -20.867188 81.363281 -23.144531 81.535156 -25.601562 C 81.710938 -28.933594 82.414062 -32.265625 82.941406 -35.59375 C 83.289062 -37.347656 83.289062 -39.101562 83.464844 -40.328125 C 83.289062 -42.082031 83.289062 -43.3125 83.113281 -44.714844 Z M 27.003906 -79.433594 C 27.53125 -82.765625 27.703125 -86.269531 28.054688 -89.601562 C 28.40625 -92.410156 29.28125 -95.039062 30.160156 -97.492188 C 31.5625 -101.351562 34.191406 -103.980469 37.699219 -105.558594 C 41.90625 -107.664062 45.414062 -106.613281 48.046875 -102.929688 C 48.746094 -102.050781 49.273438 -101 49.796875 -99.949219 C 51.550781 -96.617188 53.128906 -93.285156 54.707031 -90.128906 C 56.109375 -87.5 57.164062 -84.867188 57.515625 -81.886719 C 58.039062 -78.554688 58.742188 -75.222656 59.617188 -71.894531 C 60.320312 -69.613281 60.496094 -67.332031 60.496094 -64.878906 C 60.496094 -61.371094 60.671875 -57.691406 61.019531 -54.007812 C 61.546875 -46.992188 61.722656 -39.804688 59.441406 -32.964844 C 58.917969 -31.035156 58.566406 -29.109375 58.039062 -27.179688 C 57.339844 -24.898438 56.285156 -22.621094 54.707031 -20.691406 C 50.324219 -14.730469 41.207031 -15.605469 37.523438 -19.289062 C 35.246094 -21.566406 33.316406 -23.847656 32.4375 -27.003906 C 30.511719 -33.140625 28.933594 -39.277344 28.230469 -45.765625 C 27.878906 -50.324219 27.53125 -54.882812 27.179688 -59.441406 C 26.828125 -62.773438 26.652344 -65.929688 26.476562 -69.261719 C 26.476562 -72.59375 26.652344 -76.101562 27.003906 -79.433594 Z M 27.003906 -79.433594 "/></g></g></g><g fill="#333652" fill-opacity="0.9882"><g transform="translate(109.654379, 162.003512)"><g><path d="M 53.832031 0.175781 C 57.164062 0.527344 60.496094 0 63.828125 -0.875 C 65.753906 -1.402344 67.507812 -2.28125 69.085938 -3.507812 C 72.769531 -7.015625 75.75 -10.871094 76.976562 -15.957031 C 77.503906 -18.234375 78.03125 -20.515625 78.730469 -22.796875 C 79.082031 -24.546875 79.433594 -26.300781 79.433594 -28.230469 C 79.433594 -31.035156 79.433594 -33.667969 79.433594 -36.472656 C 79.082031 -42.257812 77.855469 -47.871094 74.347656 -52.605469 C 73.296875 -54.007812 72.417969 -55.585938 71.542969 -56.988281 C 70.488281 -58.917969 69.261719 -60.496094 67.683594 -61.898438 C 63.476562 -65.753906 59.09375 -69.085938 53.832031 -71.367188 C 46.292969 -74.699219 39.277344 -79.082031 32.265625 -83.464844 C 30.335938 -84.867188 28.933594 -86.445312 27.703125 -88.375 C 24.375 -93.988281 27.53125 -103.28125 32.265625 -106.261719 C 35.59375 -108.363281 39.453125 -109.59375 43.484375 -109.242188 C 47.519531 -108.890625 50.324219 -106.085938 50.5 -102.050781 C 50.5 -100.648438 50.324219 -99.246094 50.148438 -97.84375 C 49.972656 -96.792969 49.796875 -95.738281 49.796875 -94.6875 C 49.796875 -92.234375 50.851562 -90.65625 53.304688 -89.953125 C 56.285156 -89.078125 59.441406 -88.726562 62.597656 -89.253906 C 67.332031 -90.304688 69.789062 -92.933594 70.140625 -97.84375 C 70.316406 -101.703125 70.140625 -105.558594 69.261719 -109.242188 C 69.085938 -110.820312 68.5625 -112.222656 67.859375 -113.800781 C 65.929688 -118.007812 62.597656 -120.464844 57.863281 -120.988281 C 54.183594 -121.339844 50.324219 -121.867188 46.640625 -122.21875 C 45.238281 -122.394531 44.011719 -122.394531 42.609375 -122.21875 C 34.542969 -121.867188 26.300781 -120.988281 18.0625 -121.691406 C 16.308594 -121.867188 14.554688 -121.867188 12.976562 -121.691406 C 9.996094 -121.339844 8.242188 -119.238281 8.242188 -116.253906 C 8.066406 -115.203125 8.242188 -114.152344 8.417969 -113.273438 C 9.644531 -105.382812 9.46875 -97.492188 7.890625 -89.777344 C 7.363281 -87.847656 7.015625 -85.921875 6.664062 -83.992188 C 5.785156 -79.609375 5.960938 -75.222656 6.839844 -70.839844 C 7.015625 -69.4375 7.363281 -68.210938 7.890625 -66.984375 C 9.644531 -63.300781 12.800781 -61.898438 16.65625 -62.773438 C 18.234375 -63.125 19.8125 -63.652344 21.390625 -64.351562 C 24.199219 -65.230469 26.828125 -65.582031 29.632812 -65.230469 C 34.542969 -64.351562 39.277344 -63.125 43.835938 -60.847656 C 46.816406 -59.269531 49.097656 -56.988281 50.5 -54.007812 C 51.726562 -51.550781 52.78125 -48.921875 54.007812 -46.46875 C 57.339844 -39.804688 57.339844 -33.140625 54.359375 -26.300781 C 53.65625 -24.898438 52.953125 -23.496094 52.253906 -22.09375 C 51.375 -20.515625 50.148438 -19.113281 48.921875 -17.886719 C 44.714844 -14.203125 38.226562 -13.152344 33.492188 -15.78125 C 29.109375 -18.0625 26.652344 -21.917969 26.125 -26.828125 C 25.601562 -30.511719 26.125 -34.015625 28.054688 -37.347656 C 28.757812 -38.402344 29.457031 -39.628906 29.808594 -40.855469 C 30.6875 -43.484375 29.457031 -45.589844 26.828125 -46.292969 C 26.125 -46.640625 25.25 -46.816406 24.546875 -46.816406 C 20.867188 -47.167969 17.535156 -46.46875 14.203125 -45.0625 C 11.75 -44.011719 9.996094 -42.082031 8.941406 -39.453125 C 8.59375 -38.226562 8.242188 -37 7.890625 -35.769531 C 5.785156 -27.703125 4.910156 -19.464844 4.03125 -11.222656 C 3.859375 -10.34375 4.03125 -9.46875 4.03125 -8.59375 C 4.03125 -6.839844 4.734375 -5.261719 5.785156 -4.03125 C 8.59375 -1.050781 12.097656 0.351562 16.132812 0.175781 C 22.796875 -0.351562 29.632812 -0.175781 37.347656 0 C 42.257812 0 48.046875 -0.175781 53.832031 0.175781 Z M 53.832031 0.175781 "/></g></g></g><g fill="#ffffff" fill-opacity="1"><g transform="translate(11.829127, 151.589662)"><g><path d="M 83.113281 -44.714844 C 82.238281 -50.148438 81.535156 -55.585938 80.660156 -61.019531 C 80.132812 -64.175781 79.609375 -67.507812 79.082031 -70.664062 C 78.554688 -75.050781 77.503906 -79.433594 75.574219 -83.464844 C 73.820312 -87.148438 72.066406 -90.832031 70.664062 -94.6875 C 70.488281 -95.566406 69.964844 -96.617188 69.4375 -97.492188 C 67.859375 -100.472656 66.457031 -103.628906 64.878906 -106.613281 C 64.175781 -107.839844 63.476562 -109.242188 62.597656 -110.292969 C 57.339844 -116.429688 50.851562 -120.640625 42.609375 -121.515625 C 38.226562 -121.867188 33.84375 -122.042969 29.632812 -121.515625 C 24.199219 -120.988281 18.9375 -120.816406 13.5 -121.515625 C 11.921875 -121.867188 10.171875 -121.867188 8.417969 -121.515625 C 4.382812 -121.164062 2.804688 -118.359375 4.382812 -114.503906 C 4.734375 -113.625 5.261719 -112.75 5.785156 -111.695312 C 8.066406 -107.839844 8.941406 -103.628906 9.292969 -99.070312 C 9.820312 -93.109375 10.34375 -87.148438 10.171875 -81.011719 C 10.171875 -79.957031 10.34375 -78.730469 10.519531 -77.503906 C 10.871094 -72.769531 11.046875 -68.210938 10.34375 -63.476562 C 9.820312 -59.96875 9.820312 -56.636719 10.34375 -53.304688 C 10.695312 -51.203125 10.871094 -49.097656 10.871094 -46.992188 C 11.046875 -41.382812 10.519531 -35.769531 9.644531 -30.160156 C 8.59375 -22.269531 9.292969 -20.339844 4.382812 -10.695312 C 3.859375 -9.644531 3.332031 -8.417969 3.15625 -7.363281 C 2.628906 -4.03125 4.207031 -1.402344 7.539062 -0.351562 C 8.242188 -0.175781 8.941406 -0.175781 9.820312 0 C 16.484375 0.875 23.320312 0.875 30.160156 0.351562 C 34.894531 0 39.804688 -0.175781 44.714844 0.351562 C 46.292969 0.527344 48.046875 0.703125 49.796875 0.527344 C 54.882812 -0.175781 60.144531 -1.226562 65.054688 -2.628906 C 69.085938 -3.859375 72.066406 -6.136719 74.171875 -9.644531 C 75.925781 -12.800781 77.855469 -15.78125 79.609375 -18.761719 C 80.660156 -20.867188 81.363281 -23.144531 81.535156 -25.601562 C 81.710938 -28.933594 82.414062 -32.265625 82.941406 -35.59375 C 83.289062 -37.347656 83.289062 -39.101562 83.464844 -40.328125 C 83.289062 -42.082031 83.289062 -43.3125 83.113281 -44.714844 Z M 27.003906 -79.433594 C 27.53125 -82.765625 27.703125 -86.269531 28.054688 -89.601562 C 28.40625 -92.410156 29.28125 -95.039062 30.160156 -97.492188 C 31.5625 -101.351562 34.191406 -103.980469 37.699219 -105.558594 C 41.90625 -107.664062 45.414062 -106.613281 48.046875 -102.929688 C 48.746094 -102.050781 49.273438 -101 49.796875 -99.949219 C 51.550781 -96.617188 53.128906 -93.285156 54.707031 -90.128906 C 56.109375 -87.5 57.164062 -84.867188 57.515625 -81.886719 C 58.039062 -78.554688 58.742188 -75.222656 59.617188 -71.894531 C 60.320312 -69.613281 60.496094 -67.332031 60.496094 -64.878906 C 60.496094 -61.371094 60.671875 -57.691406 61.019531 -54.007812 C 61.546875 -46.992188 61.722656 -39.804688 59.441406 -32.964844 C 58.917969 -31.035156 58.566406 -29.109375 58.039062 -27.179688 C 57.339844 -24.898438 56.285156 -22.621094 54.707031 -20.691406 C 50.324219 -14.730469 41.207031 -15.605469 37.523438 -19.289062 C 35.246094 -21.566406 33.316406 -23.847656 32.4375 -27.003906 C 30.511719 -33.140625 28.933594 -39.277344 28.230469 -45.765625 C 27.878906 -50.324219 27.53125 -54.882812 27.179688 -59.441406 C 26.828125 -62.773438 26.652344 -65.929688 26.476562 -69.261719 C 26.476562 -72.59375 26.652344 -76.101562 27.003906 -79.433594 Z M 27.003906 -79.433594 "/></g></g></g><g fill="#ffffff" fill-opacity="1"><g transform="translate(98.088626, 151.589662)"><g><path d="M 53.832031 0.175781 C 57.164062 0.527344 60.496094 0 63.828125 -0.875 C 65.753906 -1.402344 67.507812 -2.28125 69.085938 -3.507812 C 72.769531 -7.015625 75.75 -10.871094 76.976562 -15.957031 C 77.503906 -18.234375 78.03125 -20.515625 78.730469 -22.796875 C 79.082031 -24.546875 79.433594 -26.300781 79.433594 -28.230469 C 79.433594 -31.035156 79.433594 -33.667969 79.433594 -36.472656 C 79.082031 -42.257812 77.855469 -47.871094 74.347656 -52.605469 C 73.296875 -54.007812 72.417969 -55.585938 71.542969 -56.988281 C 70.488281 -58.917969 69.261719 -60.496094 67.683594 -61.898438 C 63.476562 -65.753906 59.09375 -69.085938 53.832031 -71.367188 C 46.292969 -74.699219 39.277344 -79.082031 32.265625 -83.464844 C 30.335938 -84.867188 28.933594 -86.445312 27.703125 -88.375 C 24.375 -93.988281 27.53125 -103.28125 32.265625 -106.261719 C 35.59375 -108.363281 39.453125 -109.59375 43.484375 -109.242188 C 47.519531 -108.890625 50.324219 -106.085938 50.5 -102.050781 C 50.5 -100.648438 50.324219 -99.246094 50.148438 -97.84375 C 49.972656 -96.792969 49.796875 -95.738281 49.796875 -94.6875 C 49.796875 -92.234375 50.851562 -90.65625 53.304688 -89.953125 C 56.285156 -89.078125 59.441406 -88.726562 62.597656 -89.253906 C 67.332031 -90.304688 69.789062 -92.933594 70.140625 -97.84375 C 70.316406 -101.703125 70.140625 -105.558594 69.261719 -109.242188 C 69.085938 -110.820312 68.5625 -112.222656 67.859375 -113.800781 C 65.929688 -118.007812 62.597656 -120.464844 57.863281 -120.988281 C 54.183594 -121.339844 50.324219 -121.867188 46.640625 -122.21875 C 45.238281 -122.394531 44.011719 -122.394531 42.609375 -122.21875 C 34.542969 -121.867188 26.300781 -120.988281 18.0625 -121.691406 C 16.308594 -121.867188 14.554688 -121.867188 12.976562 -121.691406 C 9.996094 -121.339844 8.242188 -119.238281 8.242188 -116.253906 C 8.066406 -115.203125 8.242188 -114.152344 8.417969 -113.273438 C 9.644531 -105.382812 9.46875 -97.492188 7.890625 -89.777344 C 7.363281 -87.847656 7.015625 -85.921875 6.664062 -83.992188 C 5.785156 -79.609375 5.960938 -75.222656 6.839844 -70.839844 C 7.015625 -69.4375 7.363281 -68.210938 7.890625 -66.984375 C 9.644531 -63.300781 12.800781 -61.898438 16.65625 -62.773438 C 18.234375 -63.125 19.8125 -63.652344 21.390625 -64.351562 C 24.199219 -65.230469 26.828125 -65.582031 29.632812 -65.230469 C 34.542969 -64.351562 39.277344 -63.125 43.835938 -60.847656 C 46.816406 -59.269531 49.097656 -56.988281 50.5 -54.007812 C 51.726562 -51.550781 52.78125 -48.921875 54.007812 -46.46875 C 57.339844 -39.804688 57.339844 -33.140625 54.359375 -26.300781 C 53.65625 -24.898438 52.953125 -23.496094 52.253906 -22.09375 C 51.375 -20.515625 50.148438 -19.113281 48.921875 -17.886719 C 44.714844 -14.203125 38.226562 -13.152344 33.492188 -15.78125 C 29.109375 -18.0625 26.652344 -21.917969 26.125 -26.828125 C 25.601562 -30.511719 26.125 -34.015625 28.054688 -37.347656 C 28.757812 -38.402344 29.457031 -39.628906 29.808594 -40.855469 C 30.6875 -43.484375 29.457031 -45.589844 26.828125 -46.292969 C 26.125 -46.640625 25.25 -46.816406 24.546875 -46.816406 C 20.867188 -47.167969 17.535156 -46.46875 14.203125 -45.0625 C 11.75 -44.011719 9.996094 -42.082031 8.941406 -39.453125 C 8.59375 -38.226562 8.242188 -37 7.890625 -35.769531 C 5.785156 -27.703125 4.910156 -19.464844 4.03125 -11.222656 C 3.859375 -10.34375 4.03125 -9.46875 4.03125 -8.59375 C 4.03125 -6.839844 4.734375 -5.261719 5.785156 -4.03125 C 8.59375 -1.050781 12.097656 0.351562 16.132812 0.175781 C 22.796875 -0.351562 29.632812 -0.175781 37.347656 0 C 42.257812 0 48.046875 -0.175781 53.832031 0.175781 Z M 53.832031 0.175781 "/></g></g></g></svg>